<svg aria-roledescription="er" role="graphics-document document" viewBox="0 0 478.6875 951.744140625" style="max-width: 478.688px; background-color: white;" xmlns:xlink="http://www.w3.org/1999/xlink" xmlns="http://www.w3.org/2000/svg" width="100%" id="my-svg"><style>#my-svg{font-family:"trebuchet ms",verdana,arial,sans-serif;font-size:16px;fill:#333;}#my-svg .error-icon{fill:#552222;}#my-svg .error-text{fill:#552222;stroke:#552222;}#my-svg .edge-thickness-normal{stroke-width:1px;}#my-svg .edge-thickness-thick{stroke-width:3.5px;}#my-svg .edge-pattern-solid{stroke-dasharray:0;}#my-svg .edge-thickness-invisible{stroke-width:0;fill:none;}#my-svg .edge-pattern-dashed{stroke-dasharray:3;}#my-svg .edge-pattern-dotted{stroke-dasharray:2;}#my-svg .marker{fill:#333333;stroke:#333333;}#my-svg .marker.cross{stroke:#333333;}#my-svg svg{font-family:"trebuchet ms",verdana,arial,sans-serif;font-size:16px;}#my-svg p{margin:0;}#my-svg .entityBox{fill:#ECECFF;stroke:#9370DB;}#my-svg .attributeBoxOdd{fill:#ffffff;stroke:#9370DB;}#my-svg .attributeBoxEven{fill:#f2f2f2;stroke:#9370DB;}#my-svg .relationshipLabelBox{fill:hsl(80, 100%, 96.2745098039%);opacity:0.7;background-color:hsl(80, 100%, 96.2745098039%);}#my-svg .relationshipLabelBox rect{opacity:0.5;}#my-svg .relationshipLine{stroke:#333333;}#my-svg .entityTitleText{text-anchor:middle;font-size:18px;fill:#333;}#my-svg #MD_PARENT_START{fill:#f5f5f5!important;stroke:#333333!important;stroke-width:1;}#my-svg #MD_PARENT_END{fill:#f5f5f5!important;stroke:#333333!important;stroke-width:1;}#my-svg :root{--mermaid-font-family:"trebuchet ms",verdana,arial,sans-serif;}</style><g/><defs><marker orient="auto" markerHeight="240" markerWidth="190" refY="7" refX="0" id="MD_PARENT_START"><path d="M 18,7 L9,13 L1,7 L9,1 Z"/></marker></defs><defs><marker orient="auto" markerHeight="28" markerWidth="20" refY="7" refX="19" id="MD_PARENT_END"><path d="M 18,7 L9,13 L1,7 L9,1 Z"/></marker></defs><defs><marker orient="auto" markerHeight="18" markerWidth="18" refY="9" refX="0" id="ONLY_ONE_START"><path d="M9,0 L9,18 M15,0 L15,18" fill="none" stroke="gray"/></marker></defs><defs><marker orient="auto" markerHeight="18" markerWidth="18" refY="9" refX="18" id="ONLY_ONE_END"><path d="M3,0 L3,18 M9,0 L9,18" fill="none" stroke="gray"/></marker></defs><defs><marker orient="auto" markerHeight="18" markerWidth="30" refY="9" refX="0" id="ZERO_OR_ONE_START"><circle r="6" cy="9" cx="21" fill="white" stroke="gray"/><path d="M9,0 L9,18" fill="none" stroke="gray"/></marker></defs><defs><marker orient="auto" markerHeight="18" markerWidth="30" refY="9" refX="30" id="ZERO_OR_ONE_END"><circle r="6" cy="9" cx="9" fill="white" stroke="gray"/><path d="M21,0 L21,18" fill="none" stroke="gray"/></marker></defs><defs><marker orient="auto" markerHeight="36" markerWidth="45" refY="18" refX="18" id="ONE_OR_MORE_START"><path d="M0,18 Q 18,0 36,18 Q 18,36 0,18 M42,9 L42,27" fill="none" stroke="gray"/></marker></defs><defs><marker orient="auto" markerHeight="36" markerWidth="45" refY="18" refX="27" id="ONE_OR_MORE_END"><path d="M3,9 L3,27 M9,18 Q27,0 45,18 Q27,36 9,18" fill="none" stroke="gray"/></marker></defs><defs><marker orient="auto" markerHeight="36" markerWidth="57" refY="18" refX="18" id="ZERO_OR_MORE_START"><circle r="6" cy="18" cx="48" fill="white" stroke="gray"/><path d="M0,18 Q18,0 36,18 Q18,36 0,18" fill="none" stroke="gray"/></marker></defs><defs><marker orient="auto" markerHeight="36" markerWidth="57" refY="18" refX="39" id="ZERO_OR_MORE_END"><circle r="6" cy="18" cx="9" fill="white" stroke="gray"/><path d="M21,18 Q39,0 57,18 Q39,36 21,18" fill="none" stroke="gray"/></marker></defs><path style="stroke: gray; fill: none;" marker-start="url(#ONLY_ONE_START)" marker-end="url(#ONLY_ONE_END)" d="M166.844,360.311L158.671,374.792C150.497,389.272,134.151,418.233,125.978,448.387C117.805,478.542,117.805,509.891,117.805,525.565L117.805,541.239" class="er relationshipLine"/><path style="stroke: gray; fill: none;" marker-start="url(#ONLY_ONE_START)" marker-end="url(#ONLY_ONE_END)" d="M117.805,653.423L117.805,669.097C117.805,684.771,117.805,716.12,117.805,740.128C117.805,764.135,117.805,780.802,117.805,789.135L117.805,797.469" class="er relationshipLine"/><path style="stroke: gray; fill: none;" marker-start="url(#ONLY_ONE_START)" marker-end="url(#ZERO_OR_MORE_END)" d="M338.109,360.311L346.283,374.792C354.456,389.272,370.802,418.233,378.975,441.046C387.148,463.86,387.148,480.527,387.148,488.86L387.148,497.193" class="er relationshipLine"/><path style="stroke: gray; fill: none;" marker-start="url(#ONLY_ONE_START)" marker-end="url(#ONLY_ONE_END)" d="M387.148,697.469L387.148,705.802C387.148,714.135,387.148,730.802,387.148,752.992C387.148,775.181,387.148,802.894,387.148,816.75L387.148,830.606" class="er relationshipLine"/><g transform="translate(166.84375,20 )" id="entity-USER-6e7e2962-0c6f-577d-a7fd-2ce3a0cfd2c8"><rect height="377.1933708190918" width="171.265625" y="0" x="0" class="er entityBox"/><text style="dominant-baseline: middle; text-anchor: middle; font-size: 12px;" transform="translate(85.6328125,12)" y="0" x="0" id="text-entity-USER-6e7e2962-0c6f-577d-a7fd-2ce3a0cfd2c8" class="er entityLabel">USER</text><rect height="22" width="46.140625" y="24" x="0" class="er attributeBoxOdd"/><text style="dominant-baseline: middle; font-size: 10.2px;" transform="translate(5,35)" y="0" x="0" id="text-entity-USER-6e7e2962-0c6f-577d-a7fd-2ce3a0cfd2c8-attr-1-type" class="er entityLabel">int</text><rect height="22" width="103.5625" y="24" x="46.140625" class="er attributeBoxOdd"/><text style="dominant-baseline: middle; font-size: 10.2px;" transform="translate(51.140625,35)" y="0" x="0" id="text-entity-USER-6e7e2962-0c6f-577d-a7fd-2ce3a0cfd2c8-attr-1-name" class="er entityLabel">id</text><rect height="22" width="21.5625" y="24" x="149.703125" class="er attributeBoxOdd"/><text style="dominant-baseline: middle; font-size: 10.2px;" transform="translate(154.703125,35)" y="0" x="0" id="text-entity-USER-6e7e2962-0c6f-577d-a7fd-2ce3a0cfd2c8-attr-1-key" class="er entityLabel">PK</text><rect height="22.091797828674316" width="46.140625" y="46" x="0" class="er attributeBoxEven"/><text style="dominant-baseline: middle; font-size: 10.2px;" transform="translate(5,57.04589891433716)" y="0" x="0" id="text-entity-USER-6e7e2962-0c6f-577d-a7fd-2ce3a0cfd2c8-attr-2-type" class="er entityLabel">string</text><rect height="22.091797828674316" width="103.5625" y="46" x="46.140625" class="er attributeBoxEven"/><text style="dominant-baseline: middle; font-size: 10.2px;" transform="translate(51.140625,57.04589891433716)" y="0" x="0" id="text-entity-USER-6e7e2962-0c6f-577d-a7fd-2ce3a0cfd2c8-attr-2-name" class="er entityLabel">username</text><rect height="22.091797828674316" width="21.5625" y="46" x="149.703125" class="er attributeBoxEven"/><text style="dominant-baseline: middle; font-size: 10.2px;" transform="translate(154.703125,57.04589891433716)" y="0" x="0" id="text-entity-USER-6e7e2962-0c6f-577d-a7fd-2ce3a0cfd2c8-attr-2-key" class="er entityLabel"/><rect height="22.091797828674316" width="46.140625" y="68.09179782867432" x="0" class="er attributeBoxOdd"/><text style="dominant-baseline: middle; font-size: 10.2px;" transform="translate(5,79.13769674301147)" y="0" x="0" id="text-entity-USER-6e7e2962-0c6f-577d-a7fd-2ce3a0cfd2c8-attr-3-type" class="er entityLabel">string</text><rect height="22.091797828674316" width="103.5625" y="68.09179782867432" x="46.140625" class="er attributeBoxOdd"/><text style="dominant-baseline: middle; font-size: 10.2px;" transform="translate(51.140625,79.13769674301147)" y="0" x="0" id="text-entity-USER-6e7e2962-0c6f-577d-a7fd-2ce3a0cfd2c8-attr-3-name" class="er entityLabel">email</text><rect height="22.091797828674316" width="21.5625" y="68.09179782867432" x="149.703125" class="er attributeBoxOdd"/><text style="dominant-baseline: middle; font-size: 10.2px;" transform="translate(154.703125,79.13769674301147)" y="0" x="0" id="text-entity-USER-6e7e2962-0c6f-577d-a7fd-2ce3a0cfd2c8-attr-3-key" class="er entityLabel"/><rect height="22.091797828674316" width="46.140625" y="90.18359565734863" x="0" class="er attributeBoxEven"/><text style="dominant-baseline: middle; font-size: 10.2px;" transform="translate(5,101.22949457168579)" y="0" x="0" id="text-entity-USER-6e7e2962-0c6f-577d-a7fd-2ce3a0cfd2c8-attr-4-type" class="er entityLabel">string</text><rect height="22.091797828674316" width="103.5625" y="90.18359565734863" x="46.140625" class="er attributeBoxEven"/><text style="dominant-baseline: middle; font-size: 10.2px;" transform="translate(51.140625,101.22949457168579)" y="0" x="0" id="text-entity-USER-6e7e2962-0c6f-577d-a7fd-2ce3a0cfd2c8-attr-4-name" class="er entityLabel">password_hash</text><rect height="22.091797828674316" width="21.5625" y="90.18359565734863" x="149.703125" class="er attributeBoxEven"/><text style="dominant-baseline: middle; font-size: 10.2px;" transform="translate(154.703125,101.22949457168579)" y="0" x="0" id="text-entity-USER-6e7e2962-0c6f-577d-a7fd-2ce3a0cfd2c8-attr-4-key" class="er entityLabel"/><rect height="22.091797828674316" width="46.140625" y="112.27539348602295" x="0" class="er attributeBoxOdd"/><text style="dominant-baseline: middle; font-size: 10.2px;" transform="translate(5,123.32129240036011)" y="0" x="0" id="text-entity-USER-6e7e2962-0c6f-577d-a7fd-2ce3a0cfd2c8-attr-5-type" class="er entityLabel">string</text><rect height="22.091797828674316" width="103.5625" y="112.27539348602295" x="46.140625" class="er attributeBoxOdd"/><text style="dominant-baseline: middle; font-size: 10.2px;" transform="translate(51.140625,123.32129240036011)" y="0" x="0" id="text-entity-USER-6e7e2962-0c6f-577d-a7fd-2ce3a0cfd2c8-attr-5-name" class="er entityLabel">facebook_token</text><rect height="22.091797828674316" width="21.5625" y="112.27539348602295" x="149.703125" class="er attributeBoxOdd"/><text style="dominant-baseline: middle; font-size: 10.2px;" transform="translate(154.703125,123.32129240036011)" y="0" x="0" id="text-entity-USER-6e7e2962-0c6f-577d-a7fd-2ce3a0cfd2c8-attr-5-key" class="er entityLabel"/><rect height="22.091797828674316" width="46.140625" y="134.36719131469727" x="0" class="er attributeBoxEven"/><text style="dominant-baseline: middle; font-size: 10.2px;" transform="translate(5,145.41309022903442)" y="0" x="0" id="text-entity-USER-6e7e2962-0c6f-577d-a7fd-2ce3a0cfd2c8-attr-6-type" class="er entityLabel">string</text><rect height="22.091797828674316" width="103.5625" y="134.36719131469727" x="46.140625" class="er attributeBoxEven"/><text style="dominant-baseline: middle; font-size: 10.2px;" transform="translate(51.140625,145.41309022903442)" y="0" x="0" id="text-entity-USER-6e7e2962-0c6f-577d-a7fd-2ce3a0cfd2c8-attr-6-name" class="er entityLabel">google_token</text><rect height="22.091797828674316" width="21.5625" y="134.36719131469727" x="149.703125" class="er attributeBoxEven"/><text style="dominant-baseline: middle; font-size: 10.2px;" transform="translate(154.703125,145.41309022903442)" y="0" x="0" id="text-entity-USER-6e7e2962-0c6f-577d-a7fd-2ce3a0cfd2c8-attr-6-key" class="er entityLabel"/><rect height="22.091797828674316" width="46.140625" y="156.45898914337158" x="0" class="er attributeBoxOdd"/><text style="dominant-baseline: middle; font-size: 10.2px;" transform="translate(5,167.50488805770874)" y="0" x="0" id="text-entity-USER-6e7e2962-0c6f-577d-a7fd-2ce3a0cfd2c8-attr-7-type" class="er entityLabel">int</text><rect height="22.091797828674316" width="103.5625" y="156.45898914337158" x="46.140625" class="er attributeBoxOdd"/><text style="dominant-baseline: middle; font-size: 10.2px;" transform="translate(51.140625,167.50488805770874)" y="0" x="0" id="text-entity-USER-6e7e2962-0c6f-577d-a7fd-2ce3a0cfd2c8-attr-7-name" class="er entityLabel">picture_id</text><rect height="22.091797828674316" width="21.5625" y="156.45898914337158" x="149.703125" class="er attributeBoxOdd"/><text style="dominant-baseline: middle; font-size: 10.2px;" transform="translate(154.703125,167.50488805770874)" y="0" x="0" id="text-entity-USER-6e7e2962-0c6f-577d-a7fd-2ce3a0cfd2c8-attr-7-key" class="er entityLabel">FK</text><rect height="22.091797828674316" width="46.140625" y="178.5507869720459" x="0" class="er attributeBoxEven"/><text style="dominant-baseline: middle; font-size: 10.2px;" transform="translate(5,189.59668588638306)" y="0" x="0" id="text-entity-USER-6e7e2962-0c6f-577d-a7fd-2ce3a0cfd2c8-attr-8-type" class="er entityLabel">float</text><rect height="22.091797828674316" width="103.5625" y="178.5507869720459" x="46.140625" class="er attributeBoxEven"/><text style="dominant-baseline: middle; font-size: 10.2px;" transform="translate(51.140625,189.59668588638306)" y="0" x="0" id="text-entity-USER-6e7e2962-0c6f-577d-a7fd-2ce3a0cfd2c8-attr-8-name" class="er entityLabel">rating</text><rect height="22.091797828674316" width="21.5625" y="178.5507869720459" x="149.703125" class="er attributeBoxEven"/><text style="dominant-baseline: middle; font-size: 10.2px;" transform="translate(154.703125,189.59668588638306)" y="0" x="0" id="text-entity-USER-6e7e2962-0c6f-577d-a7fd-2ce3a0cfd2c8-attr-8-key" class="er entityLabel"/><rect height="22" width="46.140625" y="200.64258480072021" x="0" class="er attributeBoxOdd"/><text style="dominant-baseline: middle; font-size: 10.2px;" transform="translate(5,211.64258480072021)" y="0" x="0" id="text-entity-USER-6e7e2962-0c6f-577d-a7fd-2ce3a0cfd2c8-attr-9-type" class="er entityLabel">int</text><rect height="22" width="103.5625" y="200.64258480072021" x="46.140625" class="er attributeBoxOdd"/><text style="dominant-baseline: middle; font-size: 10.2px;" transform="translate(51.140625,211.64258480072021)" y="0" x="0" id="text-entity-USER-6e7e2962-0c6f-577d-a7fd-2ce3a0cfd2c8-attr-9-name" class="er entityLabel">total_videos</text><rect height="22" width="21.5625" y="200.64258480072021" x="149.703125" class="er attributeBoxOdd"/><text style="dominant-baseline: middle; font-size: 10.2px;" transform="translate(154.703125,211.64258480072021)" y="0" x="0" id="text-entity-USER-6e7e2962-0c6f-577d-a7fd-2ce3a0cfd2c8-attr-9-key" class="er entityLabel"/><rect height="22.091796875" width="46.140625" y="222.64258480072021" x="0" class="er attributeBoxEven"/><text style="dominant-baseline: middle; font-size: 10.2px;" transform="translate(5,233.68848323822021)" y="0" x="0" id="text-entity-USER-6e7e2962-0c6f-577d-a7fd-2ce3a0cfd2c8-attr-10-type" class="er entityLabel">float</text><rect height="22.091796875" width="103.5625" y="222.64258480072021" x="46.140625" class="er attributeBoxEven"/><text style="dominant-baseline: middle; font-size: 10.2px;" transform="translate(51.140625,233.68848323822021)" y="0" x="0" id="text-entity-USER-6e7e2962-0c6f-577d-a7fd-2ce3a0cfd2c8-attr-10-name" class="er entityLabel">delivery_percentage</text><rect height="22.091796875" width="21.5625" y="222.64258480072021" x="149.703125" class="er attributeBoxEven"/><text style="dominant-baseline: middle; font-size: 10.2px;" transform="translate(154.703125,233.68848323822021)" y="0" x="0" id="text-entity-USER-6e7e2962-0c6f-577d-a7fd-2ce3a0cfd2c8-attr-10-key" class="er entityLabel"/><rect height="22" width="46.140625" y="244.73438167572021" x="0" class="er attributeBoxOdd"/><text style="dominant-baseline: middle; font-size: 10.2px;" transform="translate(5,255.73438167572021)" y="0" x="0" id="text-entity-USER-6e7e2962-0c6f-577d-a7fd-2ce3a0cfd2c8-attr-11-type" class="er entityLabel">boolean</text><rect height="22" width="103.5625" y="244.73438167572021" x="46.140625" class="er attributeBoxOdd"/><text style="dominant-baseline: middle; font-size: 10.2px;" transform="translate(51.140625,255.73438167572021)" y="0" x="0" id="text-entity-USER-6e7e2962-0c6f-577d-a7fd-2ce3a0cfd2c8-attr-11-name" class="er entityLabel">is_locked</text><rect height="22" width="21.5625" y="244.73438167572021" x="149.703125" class="er attributeBoxOdd"/><text style="dominant-baseline: middle; font-size: 10.2px;" transform="translate(154.703125,255.73438167572021)" y="0" x="0" id="text-entity-USER-6e7e2962-0c6f-577d-a7fd-2ce3a0cfd2c8-attr-11-key" class="er entityLabel"/><rect height="22.091797828674316" width="46.140625" y="266.7343816757202" x="0" class="er attributeBoxEven"/><text style="dominant-baseline: middle; font-size: 10.2px;" transform="translate(5,277.7802805900574)" y="0" x="0" id="text-entity-USER-6e7e2962-0c6f-577d-a7fd-2ce3a0cfd2c8-attr-12-type" class="er entityLabel">string</text><rect height="22.091797828674316" width="103.5625" y="266.7343816757202" x="46.140625" class="er attributeBoxEven"/><text style="dominant-baseline: middle; font-size: 10.2px;" transform="translate(51.140625,277.7802805900574)" y="0" x="0" id="text-entity-USER-6e7e2962-0c6f-577d-a7fd-2ce3a0cfd2c8-attr-12-name" class="er entityLabel">google_token</text><rect height="22.091797828674316" width="21.5625" y="266.7343816757202" x="149.703125" class="er attributeBoxEven"/><text style="dominant-baseline: middle; font-size: 10.2px;" transform="translate(154.703125,277.7802805900574)" y="0" x="0" id="text-entity-USER-6e7e2962-0c6f-577d-a7fd-2ce3a0cfd2c8-attr-12-key" class="er entityLabel"/><rect height="22.091797828674316" width="46.140625" y="288.82617950439453" x="0" class="er attributeBoxOdd"/><text style="dominant-baseline: middle; font-size: 10.2px;" transform="translate(5,299.8720784187317)" y="0" x="0" id="text-entity-USER-6e7e2962-0c6f-577d-a7fd-2ce3a0cfd2c8-attr-13-type" class="er entityLabel">string</text><rect height="22.091797828674316" width="103.5625" y="288.82617950439453" x="46.140625" class="er attributeBoxOdd"/><text style="dominant-baseline: middle; font-size: 10.2px;" transform="translate(51.140625,299.8720784187317)" y="0" x="0" id="text-entity-USER-6e7e2962-0c6f-577d-a7fd-2ce3a0cfd2c8-attr-13-name" class="er entityLabel">facebook_token</text><rect height="22.091797828674316" width="21.5625" y="288.82617950439453" x="149.703125" class="er attributeBoxOdd"/><text style="dominant-baseline: middle; font-size: 10.2px;" transform="translate(154.703125,299.8720784187317)" y="0" x="0" id="text-entity-USER-6e7e2962-0c6f-577d-a7fd-2ce3a0cfd2c8-attr-13-key" class="er entityLabel"/><rect height="22.091797828674316" width="46.140625" y="310.91797733306885" x="0" class="er attributeBoxEven"/><text style="dominant-baseline: middle; font-size: 10.2px;" transform="translate(5,321.963876247406)" y="0" x="0" id="text-entity-USER-6e7e2962-0c6f-577d-a7fd-2ce3a0cfd2c8-attr-14-type" class="er entityLabel">string</text><rect height="22.091797828674316" width="103.5625" y="310.91797733306885" x="46.140625" class="er attributeBoxEven"/><text style="dominant-baseline: middle; font-size: 10.2px;" transform="translate(51.140625,321.963876247406)" y="0" x="0" id="text-entity-USER-6e7e2962-0c6f-577d-a7fd-2ce3a0cfd2c8-attr-14-name" class="er entityLabel">country</text><rect height="22.091797828674316" width="21.5625" y="310.91797733306885" x="149.703125" class="er attributeBoxEven"/><text style="dominant-baseline: middle; font-size: 10.2px;" transform="translate(154.703125,321.963876247406)" y="0" x="0" id="text-entity-USER-6e7e2962-0c6f-577d-a7fd-2ce3a0cfd2c8-attr-14-key" class="er entityLabel"/><rect height="22.091797828674316" width="46.140625" y="333.00977516174316" x="0" class="er attributeBoxOdd"/><text style="dominant-baseline: middle; font-size: 10.2px;" transform="translate(5,344.0556740760803)" y="0" x="0" id="text-entity-USER-6e7e2962-0c6f-577d-a7fd-2ce3a0cfd2c8-attr-15-type" class="er entityLabel">string</text><rect height="22.091797828674316" width="103.5625" y="333.00977516174316" x="46.140625" class="er attributeBoxOdd"/><text style="dominant-baseline: middle; font-size: 10.2px;" transform="translate(51.140625,344.0556740760803)" y="0" x="0" id="text-entity-USER-6e7e2962-0c6f-577d-a7fd-2ce3a0cfd2c8-attr-15-name" class="er entityLabel">gender</text><rect height="22.091797828674316" width="21.5625" y="333.00977516174316" x="149.703125" class="er attributeBoxOdd"/><text style="dominant-baseline: middle; font-size: 10.2px;" transform="translate(154.703125,344.0556740760803)" y="0" x="0" id="text-entity-USER-6e7e2962-0c6f-577d-a7fd-2ce3a0cfd2c8-attr-15-key" class="er entityLabel"/><rect height="22.091797828674316" width="46.140625" y="355.1015729904175" x="0" class="er attributeBoxEven"/><text style="dominant-baseline: middle; font-size: 10.2px;" transform="translate(5,366.14747190475464)" y="0" x="0" id="text-entity-USER-6e7e2962-0c6f-577d-a7fd-2ce3a0cfd2c8-attr-16-type" class="er entityLabel">string</text><rect height="22.091797828674316" width="103.5625" y="355.1015729904175" x="46.140625" class="er attributeBoxEven"/><text style="dominant-baseline: middle; font-size: 10.2px;" transform="translate(51.140625,366.14747190475464)" y="0" x="0" id="text-entity-USER-6e7e2962-0c6f-577d-a7fd-2ce3a0cfd2c8-attr-16-name" class="er entityLabel">DOB</text><rect height="22.091797828674316" width="21.5625" y="355.1015729904175" x="149.703125" class="er attributeBoxEven"/><text style="dominant-baseline: middle; font-size: 10.2px;" transform="translate(154.703125,366.14747190475464)" y="0" x="0" id="text-entity-USER-6e7e2962-0c6f-577d-a7fd-2ce3a0cfd2c8-attr-16-key" class="er entityLabel"/></g><g transform="translate(20,541.2392578125 )" id="entity-SETTINGS-0bd4bbb4-2bd9-5599-bc1e-011c9f460522"><rect height="112.18359565734863" width="195.609375" y="0" x="0" class="er entityBox"/><text style="dominant-baseline: middle; text-anchor: middle; font-size: 12px;" transform="translate(97.8046875,12)" y="0" x="0" id="text-entity-SETTINGS-0bd4bbb4-2bd9-5599-bc1e-011c9f460522" class="er entityLabel">SETTINGS</text><rect height="22" width="35.75" y="24" x="0" class="er attributeBoxOdd"/><text style="dominant-baseline: middle; font-size: 10.2px;" transform="translate(5,35)" y="0" x="0" id="text-entity-SETTINGS-0bd4bbb4-2bd9-5599-bc1e-011c9f460522-attr-1-type" class="er entityLabel">int</text><rect height="22" width="138.296875" y="24" x="35.75" class="er attributeBoxOdd"/><text style="dominant-baseline: middle; font-size: 10.2px;" transform="translate(40.75,35)" y="0" x="0" id="text-entity-SETTINGS-0bd4bbb4-2bd9-5599-bc1e-011c9f460522-attr-1-name" class="er entityLabel">id</text><rect height="22" width="21.5625" y="24" x="174.046875" class="er attributeBoxOdd"/><text style="dominant-baseline: middle; font-size: 10.2px;" transform="translate(179.046875,35)" y="0" x="0" id="text-entity-SETTINGS-0bd4bbb4-2bd9-5599-bc1e-011c9f460522-attr-1-key" class="er entityLabel">PK</text><rect height="22" width="35.75" y="46" x="0" class="er attributeBoxEven"/><text style="dominant-baseline: middle; font-size: 10.2px;" transform="translate(5,57)" y="0" x="0" id="text-entity-SETTINGS-0bd4bbb4-2bd9-5599-bc1e-011c9f460522-attr-2-type" class="er entityLabel">int</text><rect height="22" width="138.296875" y="46" x="35.75" class="er attributeBoxEven"/><text style="dominant-baseline: middle; font-size: 10.2px;" transform="translate(40.75,57)" y="0" x="0" id="text-entity-SETTINGS-0bd4bbb4-2bd9-5599-bc1e-011c9f460522-attr-2-name" class="er entityLabel">user_id</text><rect height="22" width="21.5625" y="46" x="174.046875" class="er attributeBoxEven"/><text style="dominant-baseline: middle; font-size: 10.2px;" transform="translate(179.046875,57)" y="0" x="0" id="text-entity-SETTINGS-0bd4bbb4-2bd9-5599-bc1e-011c9f460522-attr-2-key" class="er entityLabel">FK</text><rect height="22.091797828674316" width="35.75" y="68" x="0" class="er attributeBoxOdd"/><text style="dominant-baseline: middle; font-size: 10.2px;" transform="translate(5,79.04589891433716)" y="0" x="0" id="text-entity-SETTINGS-0bd4bbb4-2bd9-5599-bc1e-011c9f460522-attr-3-type" class="er entityLabel">string</text><rect height="22.091797828674316" width="138.296875" y="68" x="35.75" class="er attributeBoxOdd"/><text style="dominant-baseline: middle; font-size: 10.2px;" transform="translate(40.75,79.04589891433716)" y="0" x="0" id="text-entity-SETTINGS-0bd4bbb4-2bd9-5599-bc1e-011c9f460522-attr-3-name" class="er entityLabel">facebook_connection_token</text><rect height="22.091797828674316" width="21.5625" y="68" x="174.046875" class="er attributeBoxOdd"/><text style="dominant-baseline: middle; font-size: 10.2px;" transform="translate(179.046875,79.04589891433716)" y="0" x="0" id="text-entity-SETTINGS-0bd4bbb4-2bd9-5599-bc1e-011c9f460522-attr-3-key" class="er entityLabel"/><rect height="22.091797828674316" width="35.75" y="90.09179782867432" x="0" class="er attributeBoxEven"/><text style="dominant-baseline: middle; font-size: 10.2px;" transform="translate(5,101.13769674301147)" y="0" x="0" id="text-entity-SETTINGS-0bd4bbb4-2bd9-5599-bc1e-011c9f460522-attr-4-type" class="er entityLabel">string</text><rect height="22.091797828674316" width="138.296875" y="90.09179782867432" x="35.75" class="er attributeBoxEven"/><text style="dominant-baseline: middle; font-size: 10.2px;" transform="translate(40.75,101.13769674301147)" y="0" x="0" id="text-entity-SETTINGS-0bd4bbb4-2bd9-5599-bc1e-011c9f460522-attr-4-name" class="er entityLabel">google_connection_token</text><rect height="22.091797828674316" width="21.5625" y="90.09179782867432" x="174.046875" class="er attributeBoxEven"/><text style="dominant-baseline: middle; font-size: 10.2px;" transform="translate(179.046875,101.13769674301147)" y="0" x="0" id="text-entity-SETTINGS-0bd4bbb4-2bd9-5599-bc1e-011c9f460522-attr-4-key" class="er entityLabel"/></g><g transform="translate(37.8671875,797.46875 )" id="entity-PAYMENTSCONNECTION-39df33bb-6220-5312-8039-3f279ce9270d"><rect height="134.27539253234863" width="159.875" y="0" x="0" class="er entityBox"/><text style="dominant-baseline: middle; text-anchor: middle; font-size: 12px;" transform="translate(79.9375,12)" y="0" x="0" id="text-entity-PAYMENTSCONNECTION-39df33bb-6220-5312-8039-3f279ce9270d" class="er entityLabel">PAYMENTS_CONNECTION</text><rect height="22" width="50.807291666666664" y="24" x="0" class="er attributeBoxOdd"/><text style="dominant-baseline: middle; font-size: 10.2px;" transform="translate(5,35)" y="0" x="0" id="text-entity-PAYMENTSCONNECTION-39df33bb-6220-5312-8039-3f279ce9270d-attr-1-type" class="er entityLabel">int</text><rect height="22" width="72.44791666666667" y="24" x="50.807291666666664" class="er attributeBoxOdd"/><text style="dominant-baseline: middle; font-size: 10.2px;" transform="translate(55.807291666666664,35)" y="0" x="0" id="text-entity-PAYMENTSCONNECTION-39df33bb-6220-5312-8039-3f279ce9270d-attr-1-name" class="er entityLabel">id</text><rect height="22" width="36.619791666666664" y="24" x="123.25520833333334" class="er attributeBoxOdd"/><text style="dominant-baseline: middle; font-size: 10.2px;" transform="translate(128.25520833333334,35)" y="0" x="0" id="text-entity-PAYMENTSCONNECTION-39df33bb-6220-5312-8039-3f279ce9270d-attr-1-key" class="er entityLabel">PK</text><rect height="22" width="50.807291666666664" y="46" x="0" class="er attributeBoxEven"/><text style="dominant-baseline: middle; font-size: 10.2px;" transform="translate(5,57)" y="0" x="0" id="text-entity-PAYMENTSCONNECTION-39df33bb-6220-5312-8039-3f279ce9270d-attr-2-type" class="er entityLabel">int</text><rect height="22" width="72.44791666666667" y="46" x="50.807291666666664" class="er attributeBoxEven"/><text style="dominant-baseline: middle; font-size: 10.2px;" transform="translate(55.807291666666664,57)" y="0" x="0" id="text-entity-PAYMENTSCONNECTION-39df33bb-6220-5312-8039-3f279ce9270d-attr-2-name" class="er entityLabel">user_id</text><rect height="22" width="36.619791666666664" y="46" x="123.25520833333334" class="er attributeBoxEven"/><text style="dominant-baseline: middle; font-size: 10.2px;" transform="translate(128.25520833333334,57)" y="0" x="0" id="text-entity-PAYMENTSCONNECTION-39df33bb-6220-5312-8039-3f279ce9270d-attr-2-key" class="er entityLabel">FK</text><rect height="22.091797828674316" width="50.807291666666664" y="68" x="0" class="er attributeBoxOdd"/><text style="dominant-baseline: middle; font-size: 10.2px;" transform="translate(5,79.04589891433716)" y="0" x="0" id="text-entity-PAYMENTSCONNECTION-39df33bb-6220-5312-8039-3f279ce9270d-attr-3-type" class="er entityLabel">string</text><rect height="22.091797828674316" width="72.44791666666667" y="68" x="50.807291666666664" class="er attributeBoxOdd"/><text style="dominant-baseline: middle; font-size: 10.2px;" transform="translate(55.807291666666664,79.04589891433716)" y="0" x="0" id="text-entity-PAYMENTSCONNECTION-39df33bb-6220-5312-8039-3f279ce9270d-attr-3-name" class="er entityLabel">stripe_key</text><rect height="22.091797828674316" width="36.619791666666664" y="68" x="123.25520833333334" class="er attributeBoxOdd"/><text style="dominant-baseline: middle; font-size: 10.2px;" transform="translate(128.25520833333334,79.04589891433716)" y="0" x="0" id="text-entity-PAYMENTSCONNECTION-39df33bb-6220-5312-8039-3f279ce9270d-attr-3-key" class="er entityLabel"/><rect height="22.091797828674316" width="50.807291666666664" y="90.09179782867432" x="0" class="er attributeBoxEven"/><text style="dominant-baseline: middle; font-size: 10.2px;" transform="translate(5,101.13769674301147)" y="0" x="0" id="text-entity-PAYMENTSCONNECTION-39df33bb-6220-5312-8039-3f279ce9270d-attr-4-type" class="er entityLabel">string</text><rect height="22.091797828674316" width="72.44791666666667" y="90.09179782867432" x="50.807291666666664" class="er attributeBoxEven"/><text style="dominant-baseline: middle; font-size: 10.2px;" transform="translate(55.807291666666664,101.13769674301147)" y="0" x="0" id="text-entity-PAYMENTSCONNECTION-39df33bb-6220-5312-8039-3f279ce9270d-attr-4-name" class="er entityLabel">stripe_id</text><rect height="22.091797828674316" width="36.619791666666664" y="90.09179782867432" x="123.25520833333334" class="er attributeBoxEven"/><text style="dominant-baseline: middle; font-size: 10.2px;" transform="translate(128.25520833333334,101.13769674301147)" y="0" x="0" id="text-entity-PAYMENTSCONNECTION-39df33bb-6220-5312-8039-3f279ce9270d-attr-4-key" class="er entityLabel"/><rect height="22.091796875" width="50.807291666666664" y="112.18359565734863" x="0" class="er attributeBoxOdd"/><text style="dominant-baseline: middle; font-size: 10.2px;" transform="translate(5,123.22949409484863)" y="0" x="0" id="text-entity-PAYMENTSCONNECTION-39df33bb-6220-5312-8039-3f279ce9270d-attr-5-type" class="er entityLabel">date</text><rect height="22.091796875" width="72.44791666666667" y="112.18359565734863" x="50.807291666666664" class="er attributeBoxOdd"/><text style="dominant-baseline: middle; font-size: 10.2px;" transform="translate(55.807291666666664,123.22949409484863)" y="0" x="0" id="text-entity-PAYMENTSCONNECTION-39df33bb-6220-5312-8039-3f279ce9270d-attr-5-name" class="er entityLabel">last_sync</text><rect height="22.091796875" width="36.619791666666664" y="112.18359565734863" x="123.25520833333334" class="er attributeBoxOdd"/><text style="dominant-baseline: middle; font-size: 10.2px;" transform="translate(128.25520833333334,123.22949409484863)" y="0" x="0" id="text-entity-PAYMENTSCONNECTION-39df33bb-6220-5312-8039-3f279ce9270d-attr-5-key" class="er entityLabel"/></g><g transform="translate(315.609375,497.193359375 )" id="entity-WITHDRAW-acc931cb-1d4f-5d3e-a16b-38be736bbf72"><rect height="200.27539348602295" width="143.078125" y="0" x="0" class="er entityBox"/><text style="dominant-baseline: middle; text-anchor: middle; font-size: 12px;" transform="translate(71.5390625,12)" y="0" x="0" id="text-entity-WITHDRAW-acc931cb-1d4f-5d3e-a16b-38be736bbf72" class="er entityLabel">WITHDRAW</text><rect height="22" width="35.75" y="24" x="0" class="er attributeBoxOdd"/><text style="dominant-baseline: middle; font-size: 10.2px;" transform="translate(5,35)" y="0" x="0" id="text-entity-WITHDRAW-acc931cb-1d4f-5d3e-a16b-38be736bbf72-attr-1-type" class="er entityLabel">int</text><rect height="22" width="85.765625" y="24" x="35.75" class="er attributeBoxOdd"/><text style="dominant-baseline: middle; font-size: 10.2px;" transform="translate(40.75,35)" y="0" x="0" id="text-entity-WITHDRAW-acc931cb-1d4f-5d3e-a16b-38be736bbf72-attr-1-name" class="er entityLabel">id</text><rect height="22" width="21.5625" y="24" x="121.515625" class="er attributeBoxOdd"/><text style="dominant-baseline: middle; font-size: 10.2px;" transform="translate(126.515625,35)" y="0" x="0" id="text-entity-WITHDRAW-acc931cb-1d4f-5d3e-a16b-38be736bbf72-attr-1-key" class="er entityLabel">PK</text><rect height="22" width="35.75" y="46" x="0" class="er attributeBoxEven"/><text style="dominant-baseline: middle; font-size: 10.2px;" transform="translate(5,57)" y="0" x="0" id="text-entity-WITHDRAW-acc931cb-1d4f-5d3e-a16b-38be736bbf72-attr-2-type" class="er entityLabel">int</text><rect height="22" width="85.765625" y="46" x="35.75" class="er attributeBoxEven"/><text style="dominant-baseline: middle; font-size: 10.2px;" transform="translate(40.75,57)" y="0" x="0" id="text-entity-WITHDRAW-acc931cb-1d4f-5d3e-a16b-38be736bbf72-attr-2-name" class="er entityLabel">user_id</text><rect height="22" width="21.5625" y="46" x="121.515625" class="er attributeBoxEven"/><text style="dominant-baseline: middle; font-size: 10.2px;" transform="translate(126.515625,57)" y="0" x="0" id="text-entity-WITHDRAW-acc931cb-1d4f-5d3e-a16b-38be736bbf72-attr-2-key" class="er entityLabel">FK</text><rect height="22" width="35.75" y="68" x="0" class="er attributeBoxOdd"/><text style="dominant-baseline: middle; font-size: 10.2px;" transform="translate(5,79)" y="0" x="0" id="text-entity-WITHDRAW-acc931cb-1d4f-5d3e-a16b-38be736bbf72-attr-3-type" class="er entityLabel">int</text><rect height="22" width="85.765625" y="68" x="35.75" class="er attributeBoxOdd"/><text style="dominant-baseline: middle; font-size: 10.2px;" transform="translate(40.75,79)" y="0" x="0" id="text-entity-WITHDRAW-acc931cb-1d4f-5d3e-a16b-38be736bbf72-attr-3-name" class="er entityLabel">task_id</text><rect height="22" width="21.5625" y="68" x="121.515625" class="er attributeBoxOdd"/><text style="dominant-baseline: middle; font-size: 10.2px;" transform="translate(126.515625,79)" y="0" x="0" id="text-entity-WITHDRAW-acc931cb-1d4f-5d3e-a16b-38be736bbf72-attr-3-key" class="er entityLabel">FK</text><rect height="22" width="35.75" y="90" x="0" class="er attributeBoxEven"/><text style="dominant-baseline: middle; font-size: 10.2px;" transform="translate(5,101)" y="0" x="0" id="text-entity-WITHDRAW-acc931cb-1d4f-5d3e-a16b-38be736bbf72-attr-4-type" class="er entityLabel">float</text><rect height="22" width="85.765625" y="90" x="35.75" class="er attributeBoxEven"/><text style="dominant-baseline: middle; font-size: 10.2px;" transform="translate(40.75,101)" y="0" x="0" id="text-entity-WITHDRAW-acc931cb-1d4f-5d3e-a16b-38be736bbf72-attr-4-name" class="er entityLabel">amount</text><rect height="22" width="21.5625" y="90" x="121.515625" class="er attributeBoxEven"/><text style="dominant-baseline: middle; font-size: 10.2px;" transform="translate(126.515625,101)" y="0" x="0" id="text-entity-WITHDRAW-acc931cb-1d4f-5d3e-a16b-38be736bbf72-attr-4-key" class="er entityLabel"/><rect height="22.091797828674316" width="35.75" y="112" x="0" class="er attributeBoxOdd"/><text style="dominant-baseline: middle; font-size: 10.2px;" transform="translate(5,123.04589891433716)" y="0" x="0" id="text-entity-WITHDRAW-acc931cb-1d4f-5d3e-a16b-38be736bbf72-attr-5-type" class="er entityLabel">string</text><rect height="22.091797828674316" width="85.765625" y="112" x="35.75" class="er attributeBoxOdd"/><text style="dominant-baseline: middle; font-size: 10.2px;" transform="translate(40.75,123.04589891433716)" y="0" x="0" id="text-entity-WITHDRAW-acc931cb-1d4f-5d3e-a16b-38be736bbf72-attr-5-name" class="er entityLabel">payment_details</text><rect height="22.091797828674316" width="21.5625" y="112" x="121.515625" class="er attributeBoxOdd"/><text style="dominant-baseline: middle; font-size: 10.2px;" transform="translate(126.515625,123.04589891433716)" y="0" x="0" id="text-entity-WITHDRAW-acc931cb-1d4f-5d3e-a16b-38be736bbf72-attr-5-key" class="er entityLabel"/><rect height="22.091797828674316" width="35.75" y="134.09179782867432" x="0" class="er attributeBoxEven"/><text style="dominant-baseline: middle; font-size: 10.2px;" transform="translate(5,145.13769674301147)" y="0" x="0" id="text-entity-WITHDRAW-acc931cb-1d4f-5d3e-a16b-38be736bbf72-attr-6-type" class="er entityLabel">string</text><rect height="22.091797828674316" width="85.765625" y="134.09179782867432" x="35.75" class="er attributeBoxEven"/><text style="dominant-baseline: middle; font-size: 10.2px;" transform="translate(40.75,145.13769674301147)" y="0" x="0" id="text-entity-WITHDRAW-acc931cb-1d4f-5d3e-a16b-38be736bbf72-attr-6-name" class="er entityLabel">stripe_token</text><rect height="22.091797828674316" width="21.5625" y="134.09179782867432" x="121.515625" class="er attributeBoxEven"/><text style="dominant-baseline: middle; font-size: 10.2px;" transform="translate(126.515625,145.13769674301147)" y="0" x="0" id="text-entity-WITHDRAW-acc931cb-1d4f-5d3e-a16b-38be736bbf72-attr-6-key" class="er entityLabel"/><rect height="22.091797828674316" width="35.75" y="156.18359565734863" x="0" class="er attributeBoxOdd"/><text style="dominant-baseline: middle; font-size: 10.2px;" transform="translate(5,167.2294945716858)" y="0" x="0" id="text-entity-WITHDRAW-acc931cb-1d4f-5d3e-a16b-38be736bbf72-attr-7-type" class="er entityLabel">string</text><rect height="22.091797828674316" width="85.765625" y="156.18359565734863" x="35.75" class="er attributeBoxOdd"/><text style="dominant-baseline: middle; font-size: 10.2px;" transform="translate(40.75,167.2294945716858)" y="0" x="0" id="text-entity-WITHDRAW-acc931cb-1d4f-5d3e-a16b-38be736bbf72-attr-7-name" class="er entityLabel">reciever</text><rect height="22.091797828674316" width="21.5625" y="156.18359565734863" x="121.515625" class="er attributeBoxOdd"/><text style="dominant-baseline: middle; font-size: 10.2px;" transform="translate(126.515625,167.2294945716858)" y="0" x="0" id="text-entity-WITHDRAW-acc931cb-1d4f-5d3e-a16b-38be736bbf72-attr-7-key" class="er entityLabel"/><rect height="22" width="35.75" y="178.27539348602295" x="0" class="er attributeBoxEven"/><text style="dominant-baseline: middle; font-size: 10.2px;" transform="translate(5,189.27539348602295)" y="0" x="0" id="text-entity-WITHDRAW-acc931cb-1d4f-5d3e-a16b-38be736bbf72-attr-8-type" class="er entityLabel">date</text><rect height="22" width="85.765625" y="178.27539348602295" x="35.75" class="er attributeBoxEven"/><text style="dominant-baseline: middle; font-size: 10.2px;" transform="translate(40.75,189.27539348602295)" y="0" x="0" id="text-entity-WITHDRAW-acc931cb-1d4f-5d3e-a16b-38be736bbf72-attr-8-name" class="er entityLabel">created_at</text><rect height="22" width="21.5625" y="178.27539348602295" x="121.515625" class="er attributeBoxEven"/><text style="dominant-baseline: middle; font-size: 10.2px;" transform="translate(126.515625,189.27539348602295)" y="0" x="0" id="text-entity-WITHDRAW-acc931cb-1d4f-5d3e-a16b-38be736bbf72-attr-8-key" class="er entityLabel"/></g><g transform="translate(320.5078125,830.6064453125 )" id="entity-WITHDRAWSTATUS-8f48508a-971d-526e-a945-2ff80b2ccdc4"><rect height="68" width="133.28125" y="0" x="0" class="er entityBox"/><text style="dominant-baseline: middle; text-anchor: middle; font-size: 12px;" transform="translate(66.640625,12)" y="0" x="0" id="text-entity-WITHDRAWSTATUS-8f48508a-971d-526e-a945-2ff80b2ccdc4" class="er entityLabel">WITHDRAW_STATUS</text><rect height="22" width="49.041666666666664" y="24" x="0" class="er attributeBoxOdd"/><text style="dominant-baseline: middle; font-size: 10.2px;" transform="translate(5,35)" y="0" x="0" id="text-entity-WITHDRAWSTATUS-8f48508a-971d-526e-a945-2ff80b2ccdc4-attr-1-type" class="er entityLabel">int</text><rect height="22" width="48.822916666666664" y="24" x="49.041666666666664" class="er attributeBoxOdd"/><text style="dominant-baseline: middle; font-size: 10.2px;" transform="translate(54.041666666666664,35)" y="0" x="0" id="text-entity-WITHDRAWSTATUS-8f48508a-971d-526e-a945-2ff80b2ccdc4-attr-1-name" class="er entityLabel">id</text><rect height="22" width="35.416666666666664" y="24" x="97.86458333333333" class="er attributeBoxOdd"/><text style="dominant-baseline: middle; font-size: 10.2px;" transform="translate(102.86458333333333,35)" y="0" x="0" id="text-entity-WITHDRAWSTATUS-8f48508a-971d-526e-a945-2ff80b2ccdc4-attr-1-key" class="er entityLabel">PK</text><rect height="22" width="49.041666666666664" y="46" x="0" class="er attributeBoxEven"/><text style="dominant-baseline: middle; font-size: 10.2px;" transform="translate(5,57)" y="0" x="0" id="text-entity-WITHDRAWSTATUS-8f48508a-971d-526e-a945-2ff80b2ccdc4-attr-2-type" class="er entityLabel">enum</text><rect height="22" width="48.822916666666664" y="46" x="49.041666666666664" class="er attributeBoxEven"/><text style="dominant-baseline: middle; font-size: 10.2px;" transform="translate(54.041666666666664,57)" y="0" x="0" id="text-entity-WITHDRAWSTATUS-8f48508a-971d-526e-a945-2ff80b2ccdc4-attr-2-name" class="er entityLabel">name</text><rect height="22" width="35.416666666666664" y="46" x="97.86458333333333" class="er attributeBoxEven"/><text style="dominant-baseline: middle; font-size: 10.2px;" transform="translate(102.86458333333333,57)" y="0" x="0" id="text-entity-WITHDRAWSTATUS-8f48508a-971d-526e-a945-2ff80b2ccdc4-attr-2-key" class="er entityLabel"/></g><rect height="14" width="17.71875" y="439.5312194824219" x="117.63260650634766" class="er relationshipLabelBox"/><text style="text-anchor: middle; dominant-baseline: middle; font-size: 12px;" y="446.5312194824219" x="126.49198150634766" id="rel1" class="er relationshipLabel">has</text><rect height="14" width="17.71875" y="718.4459838867188" x="108.94562530517578" class="er relationshipLabelBox"/><text style="text-anchor: middle; dominant-baseline: middle; font-size: 12px;" y="725.4459838867188" x="117.80500030517578" id="rel2" class="er relationshipLabel">has</text><rect height="14" width="45.46875" y="418.5422058105469" x="349.9344787597656" class="er relationshipLabelBox"/><text style="text-anchor: middle; dominant-baseline: middle; font-size: 12px;" y="425.5422058105469" x="372.6688537597656" id="rel3" class="er relationshipLabel">requests</text><rect height="14" width="17.71875" y="757.0374755859375" x="378.28863525390625" class="er relationshipLabelBox"/><text style="text-anchor: middle; dominant-baseline: middle; font-size: 12px;" y="764.0374755859375" x="387.14801025390625" id="rel4" class="er relationshipLabel">has</text></svg>