<svg aria-roledescription="er" role="graphics-document document" viewBox="0 0 1069.6953125 708.642578125" style="max-width: 1069.7px; background-color: white;" xmlns:xlink="http://www.w3.org/1999/xlink" xmlns="http://www.w3.org/2000/svg" width="100%" id="my-svg"><style>#my-svg{font-family:"trebuchet ms",verdana,arial,sans-serif;font-size:16px;fill:#333;}#my-svg .error-icon{fill:#552222;}#my-svg .error-text{fill:#552222;stroke:#552222;}#my-svg .edge-thickness-normal{stroke-width:1px;}#my-svg .edge-thickness-thick{stroke-width:3.5px;}#my-svg .edge-pattern-solid{stroke-dasharray:0;}#my-svg .edge-thickness-invisible{stroke-width:0;fill:none;}#my-svg .edge-pattern-dashed{stroke-dasharray:3;}#my-svg .edge-pattern-dotted{stroke-dasharray:2;}#my-svg .marker{fill:#333333;stroke:#333333;}#my-svg .marker.cross{stroke:#333333;}#my-svg svg{font-family:"trebuchet ms",verdana,arial,sans-serif;font-size:16px;}#my-svg p{margin:0;}#my-svg .entityBox{fill:#ECECFF;stroke:#9370DB;}#my-svg .attributeBoxOdd{fill:#ffffff;stroke:#9370DB;}#my-svg .attributeBoxEven{fill:#f2f2f2;stroke:#9370DB;}#my-svg .relationshipLabelBox{fill:hsl(80, 100%, 96.2745098039%);opacity:0.7;background-color:hsl(80, 100%, 96.2745098039%);}#my-svg .relationshipLabelBox rect{opacity:0.5;}#my-svg .relationshipLine{stroke:#333333;}#my-svg .entityTitleText{text-anchor:middle;font-size:18px;fill:#333;}#my-svg #MD_PARENT_START{fill:#f5f5f5!important;stroke:#333333!important;stroke-width:1;}#my-svg #MD_PARENT_END{fill:#f5f5f5!important;stroke:#333333!important;stroke-width:1;}#my-svg :root{--mermaid-font-family:"trebuchet ms",verdana,arial,sans-serif;}</style><g/><defs><marker orient="auto" markerHeight="240" markerWidth="190" refY="7" refX="0" id="MD_PARENT_START"><path d="M 18,7 L9,13 L1,7 L9,1 Z"/></marker></defs><defs><marker orient="auto" markerHeight="28" markerWidth="20" refY="7" refX="19" id="MD_PARENT_END"><path d="M 18,7 L9,13 L1,7 L9,1 Z"/></marker></defs><defs><marker orient="auto" markerHeight="18" markerWidth="18" refY="9" refX="0" id="ONLY_ONE_START"><path d="M9,0 L9,18 M15,0 L15,18" fill="none" stroke="gray"/></marker></defs><defs><marker orient="auto" markerHeight="18" markerWidth="18" refY="9" refX="18" id="ONLY_ONE_END"><path d="M3,0 L3,18 M9,0 L9,18" fill="none" stroke="gray"/></marker></defs><defs><marker orient="auto" markerHeight="18" markerWidth="30" refY="9" refX="0" id="ZERO_OR_ONE_START"><circle r="6" cy="9" cx="21" fill="white" stroke="gray"/><path d="M9,0 L9,18" fill="none" stroke="gray"/></marker></defs><defs><marker orient="auto" markerHeight="18" markerWidth="30" refY="9" refX="30" id="ZERO_OR_ONE_END"><circle r="6" cy="9" cx="9" fill="white" stroke="gray"/><path d="M21,0 L21,18" fill="none" stroke="gray"/></marker></defs><defs><marker orient="auto" markerHeight="36" markerWidth="45" refY="18" refX="18" id="ONE_OR_MORE_START"><path d="M0,18 Q 18,0 36,18 Q 18,36 0,18 M42,9 L42,27" fill="none" stroke="gray"/></marker></defs><defs><marker orient="auto" markerHeight="36" markerWidth="45" refY="18" refX="27" id="ONE_OR_MORE_END"><path d="M3,9 L3,27 M9,18 Q27,0 45,18 Q27,36 9,18" fill="none" stroke="gray"/></marker></defs><defs><marker orient="auto" markerHeight="36" markerWidth="57" refY="18" refX="18" id="ZERO_OR_MORE_START"><circle r="6" cy="18" cx="48" fill="white" stroke="gray"/><path d="M0,18 Q18,0 36,18 Q18,36 0,18" fill="none" stroke="gray"/></marker></defs><defs><marker orient="auto" markerHeight="36" markerWidth="57" refY="18" refX="39" id="ZERO_OR_MORE_END"><circle r="6" cy="18" cx="9" fill="white" stroke="gray"/><path d="M21,18 Q39,0 57,18 Q39,36 21,18" fill="none" stroke="gray"/></marker></defs><path style="stroke: gray; fill: none;" marker-start="url(#ONLY_ONE_START)" marker-end="url(#ZERO_OR_MORE_END)" d="M459.039,140.551L396.207,162.187C333.375,183.823,207.711,227.095,144.879,260.724C82.047,294.352,82.047,318.337,82.047,330.329L82.047,342.321" class="er relationshipLine"/><path style="stroke: gray; fill: none;" marker-start="url(#ONLY_ONE_START)" marker-end="url(#ZERO_OR_MORE_END)" d="M459.039,162.076L433.556,180.124C408.073,198.173,357.107,234.27,331.624,264.311C306.141,294.352,306.141,318.337,306.141,330.329L306.141,342.321" class="er relationshipLine"/><path style="stroke: gray; fill: none;" marker-start="url(#ONE_OR_MORE_START)" marker-end="url(#ONLY_ONE_END)" d="M518.188,220.367L518.188,228.701C518.188,237.034,518.188,253.701,518.188,281.382C518.188,309.064,518.188,347.762,518.188,367.11L518.188,386.459" class="er relationshipLine"/><path style="stroke: gray; fill: none;" marker-start="url(#ONLY_ONE_START)" marker-end="url(#ZERO_OR_MORE_END)" d="M577.336,160.281L604.401,178.629C631.466,196.976,685.596,233.672,712.661,260.353C739.727,287.034,739.727,303.701,739.727,312.034L739.727,320.367" class="er relationshipLine"/><path style="stroke: gray; fill: none;" marker-start="url(#ONLY_ONE_START)" marker-end="url(#ONLY_ONE_END)" d="M577.336,139.501L644.118,161.312C710.901,183.123,844.466,226.745,911.249,262.405C978.031,298.064,978.031,325.762,978.031,339.61L978.031,353.459" class="er relationshipLine"/><path style="stroke: gray; fill: none;" marker-start="url(#ONE_OR_MORE_START)" marker-end="url(#ONLY_ONE_END)" d="M978.031,487.551L978.031,501.399C978.031,515.248,978.031,542.945,978.031,565.127C978.031,587.309,978.031,603.976,978.031,612.309L978.031,620.643" class="er relationshipLine"/><path style="stroke: gray; fill: none;" marker-start="url(#ONLY_ONE_START)" marker-end="url(#ONLY_ONE_END)" d="M739.727,520.643L739.727,528.976C739.727,537.309,739.727,553.976,739.727,570.643C739.727,587.309,739.727,603.976,739.727,612.309L739.727,620.643" class="er relationshipLine"/><g transform="translate(459.0390625,20 )" id="entity-TASK-5f0ceeb5-8943-5386-8f04-a46640e9fb8e"><rect height="200.36719036102295" width="118.296875" y="0" x="0" class="er entityBox"/><text style="dominant-baseline: middle; text-anchor: middle; font-size: 12px;" transform="translate(59.1484375,12)" y="0" x="0" id="text-entity-TASK-5f0ceeb5-8943-5386-8f04-a46640e9fb8e" class="er entityLabel">TASK</text><rect height="22" width="35.75" y="24" x="0" class="er attributeBoxOdd"/><text style="dominant-baseline: middle; font-size: 10.2px;" transform="translate(5,35)" y="0" x="0" id="text-entity-TASK-5f0ceeb5-8943-5386-8f04-a46640e9fb8e-attr-1-type" class="er entityLabel">int</text><rect height="22" width="60.984375" y="24" x="35.75" class="er attributeBoxOdd"/><text style="dominant-baseline: middle; font-size: 10.2px;" transform="translate(40.75,35)" y="0" x="0" id="text-entity-TASK-5f0ceeb5-8943-5386-8f04-a46640e9fb8e-attr-1-name" class="er entityLabel">id</text><rect height="22" width="21.5625" y="24" x="96.734375" class="er attributeBoxOdd"/><text style="dominant-baseline: middle; font-size: 10.2px;" transform="translate(101.734375,35)" y="0" x="0" id="text-entity-TASK-5f0ceeb5-8943-5386-8f04-a46640e9fb8e-attr-1-key" class="er entityLabel">PK</text><rect height="22.091797828674316" width="35.75" y="46" x="0" class="er attributeBoxEven"/><text style="dominant-baseline: middle; font-size: 10.2px;" transform="translate(5,57.04589891433716)" y="0" x="0" id="text-entity-TASK-5f0ceeb5-8943-5386-8f04-a46640e9fb8e-attr-2-type" class="er entityLabel">string</text><rect height="22.091797828674316" width="60.984375" y="46" x="35.75" class="er attributeBoxEven"/><text style="dominant-baseline: middle; font-size: 10.2px;" transform="translate(40.75,57.04589891433716)" y="0" x="0" id="text-entity-TASK-5f0ceeb5-8943-5386-8f04-a46640e9fb8e-attr-2-name" class="er entityLabel">title</text><rect height="22.091797828674316" width="21.5625" y="46" x="96.734375" class="er attributeBoxEven"/><text style="dominant-baseline: middle; font-size: 10.2px;" transform="translate(101.734375,57.04589891433716)" y="0" x="0" id="text-entity-TASK-5f0ceeb5-8943-5386-8f04-a46640e9fb8e-attr-2-key" class="er entityLabel"/><rect height="22.091796875" width="35.75" y="68.09179782867432" x="0" class="er attributeBoxOdd"/><text style="dominant-baseline: middle; font-size: 10.2px;" transform="translate(5,79.13769626617432)" y="0" x="0" id="text-entity-TASK-5f0ceeb5-8943-5386-8f04-a46640e9fb8e-attr-3-type" class="er entityLabel">text</text><rect height="22.091796875" width="60.984375" y="68.09179782867432" x="35.75" class="er attributeBoxOdd"/><text style="dominant-baseline: middle; font-size: 10.2px;" transform="translate(40.75,79.13769626617432)" y="0" x="0" id="text-entity-TASK-5f0ceeb5-8943-5386-8f04-a46640e9fb8e-attr-3-name" class="er entityLabel">description</text><rect height="22.091796875" width="21.5625" y="68.09179782867432" x="96.734375" class="er attributeBoxOdd"/><text style="dominant-baseline: middle; font-size: 10.2px;" transform="translate(101.734375,79.13769626617432)" y="0" x="0" id="text-entity-TASK-5f0ceeb5-8943-5386-8f04-a46640e9fb8e-attr-3-key" class="er entityLabel"/><rect height="22.091797828674316" width="35.75" y="90.18359470367432" x="0" class="er attributeBoxEven"/><text style="dominant-baseline: middle; font-size: 10.2px;" transform="translate(5,101.22949361801147)" y="0" x="0" id="text-entity-TASK-5f0ceeb5-8943-5386-8f04-a46640e9fb8e-attr-4-type" class="er entityLabel">string</text><rect height="22.091797828674316" width="60.984375" y="90.18359470367432" x="35.75" class="er attributeBoxEven"/><text style="dominant-baseline: middle; font-size: 10.2px;" transform="translate(40.75,101.22949361801147)" y="0" x="0" id="text-entity-TASK-5f0ceeb5-8943-5386-8f04-a46640e9fb8e-attr-4-name" class="er entityLabel">type</text><rect height="22.091797828674316" width="21.5625" y="90.18359470367432" x="96.734375" class="er attributeBoxEven"/><text style="dominant-baseline: middle; font-size: 10.2px;" transform="translate(101.734375,101.22949361801147)" y="0" x="0" id="text-entity-TASK-5f0ceeb5-8943-5386-8f04-a46640e9fb8e-attr-4-key" class="er entityLabel"/><rect height="22" width="35.75" y="112.27539253234863" x="0" class="er attributeBoxOdd"/><text style="dominant-baseline: middle; font-size: 10.2px;" transform="translate(5,123.27539253234863)" y="0" x="0" id="text-entity-TASK-5f0ceeb5-8943-5386-8f04-a46640e9fb8e-attr-5-type" class="er entityLabel">date</text><rect height="22" width="60.984375" y="112.27539253234863" x="35.75" class="er attributeBoxOdd"/><text style="dominant-baseline: middle; font-size: 10.2px;" transform="translate(40.75,123.27539253234863)" y="0" x="0" id="text-entity-TASK-5f0ceeb5-8943-5386-8f04-a46640e9fb8e-attr-5-name" class="er entityLabel">due_date</text><rect height="22" width="21.5625" y="112.27539253234863" x="96.734375" class="er attributeBoxOdd"/><text style="dominant-baseline: middle; font-size: 10.2px;" transform="translate(101.734375,123.27539253234863)" y="0" x="0" id="text-entity-TASK-5f0ceeb5-8943-5386-8f04-a46640e9fb8e-attr-5-key" class="er entityLabel"/><rect height="22.091797828674316" width="35.75" y="134.27539253234863" x="0" class="er attributeBoxEven"/><text style="dominant-baseline: middle; font-size: 10.2px;" transform="translate(5,145.3212914466858)" y="0" x="0" id="text-entity-TASK-5f0ceeb5-8943-5386-8f04-a46640e9fb8e-attr-6-type" class="er entityLabel">int</text><rect height="22.091797828674316" width="60.984375" y="134.27539253234863" x="35.75" class="er attributeBoxEven"/><text style="dominant-baseline: middle; font-size: 10.2px;" transform="translate(40.75,145.3212914466858)" y="0" x="0" id="text-entity-TASK-5f0ceeb5-8943-5386-8f04-a46640e9fb8e-attr-6-name" class="er entityLabel">project_id</text><rect height="22.091797828674316" width="21.5625" y="134.27539253234863" x="96.734375" class="er attributeBoxEven"/><text style="dominant-baseline: middle; font-size: 10.2px;" transform="translate(101.734375,145.3212914466858)" y="0" x="0" id="text-entity-TASK-5f0ceeb5-8943-5386-8f04-a46640e9fb8e-attr-6-key" class="er entityLabel">FK</text><rect height="22" width="35.75" y="156.36719036102295" x="0" class="er attributeBoxOdd"/><text style="dominant-baseline: middle; font-size: 10.2px;" transform="translate(5,167.36719036102295)" y="0" x="0" id="text-entity-TASK-5f0ceeb5-8943-5386-8f04-a46640e9fb8e-attr-7-type" class="er entityLabel">int</text><rect height="22" width="60.984375" y="156.36719036102295" x="35.75" class="er attributeBoxOdd"/><text style="dominant-baseline: middle; font-size: 10.2px;" transform="translate(40.75,167.36719036102295)" y="0" x="0" id="text-entity-TASK-5f0ceeb5-8943-5386-8f04-a46640e9fb8e-attr-7-name" class="er entityLabel">user_id</text><rect height="22" width="21.5625" y="156.36719036102295" x="96.734375" class="er attributeBoxOdd"/><text style="dominant-baseline: middle; font-size: 10.2px;" transform="translate(101.734375,167.36719036102295)" y="0" x="0" id="text-entity-TASK-5f0ceeb5-8943-5386-8f04-a46640e9fb8e-attr-7-key" class="er entityLabel">FK</text><rect height="22" width="35.75" y="178.36719036102295" x="0" class="er attributeBoxEven"/><text style="dominant-baseline: middle; font-size: 10.2px;" transform="translate(5,189.36719036102295)" y="0" x="0" id="text-entity-TASK-5f0ceeb5-8943-5386-8f04-a46640e9fb8e-attr-8-type" class="er entityLabel">int</text><rect height="22" width="60.984375" y="178.36719036102295" x="35.75" class="er attributeBoxEven"/><text style="dominant-baseline: middle; font-size: 10.2px;" transform="translate(40.75,189.36719036102295)" y="0" x="0" id="text-entity-TASK-5f0ceeb5-8943-5386-8f04-a46640e9fb8e-attr-8-name" class="er entityLabel">status_id</text><rect height="22" width="21.5625" y="178.36719036102295" x="96.734375" class="er attributeBoxEven"/><text style="dominant-baseline: middle; font-size: 10.2px;" transform="translate(101.734375,189.36719036102295)" y="0" x="0" id="text-entity-TASK-5f0ceeb5-8943-5386-8f04-a46640e9fb8e-attr-8-key" class="er entityLabel">FK</text></g><g transform="translate(20,342.3212890625 )" id="entity-TASKVIDEO-3d343ed2-8417-5031-a076-f1ce215f1cb8"><rect height="156.36719036102295" width="124.09375" y="0" x="0" class="er entityBox"/><text style="dominant-baseline: middle; text-anchor: middle; font-size: 12px;" transform="translate(62.046875,12)" y="0" x="0" id="text-entity-TASKVIDEO-3d343ed2-8417-5031-a076-f1ce215f1cb8" class="er entityLabel">TASK_VIDEO</text><rect height="22" width="35.75" y="24" x="0" class="er attributeBoxOdd"/><text style="dominant-baseline: middle; font-size: 10.2px;" transform="translate(5,35)" y="0" x="0" id="text-entity-TASKVIDEO-3d343ed2-8417-5031-a076-f1ce215f1cb8-attr-1-type" class="er entityLabel">int</text><rect height="22" width="66.78125" y="24" x="35.75" class="er attributeBoxOdd"/><text style="dominant-baseline: middle; font-size: 10.2px;" transform="translate(40.75,35)" y="0" x="0" id="text-entity-TASKVIDEO-3d343ed2-8417-5031-a076-f1ce215f1cb8-attr-1-name" class="er entityLabel">id</text><rect height="22" width="21.5625" y="24" x="102.53125" class="er attributeBoxOdd"/><text style="dominant-baseline: middle; font-size: 10.2px;" transform="translate(107.53125,35)" y="0" x="0" id="text-entity-TASKVIDEO-3d343ed2-8417-5031-a076-f1ce215f1cb8-attr-1-key" class="er entityLabel">PK</text><rect height="22" width="35.75" y="46" x="0" class="er attributeBoxEven"/><text style="dominant-baseline: middle; font-size: 10.2px;" transform="translate(5,57)" y="0" x="0" id="text-entity-TASKVIDEO-3d343ed2-8417-5031-a076-f1ce215f1cb8-attr-2-type" class="er entityLabel">int</text><rect height="22" width="66.78125" y="46" x="35.75" class="er attributeBoxEven"/><text style="dominant-baseline: middle; font-size: 10.2px;" transform="translate(40.75,57)" y="0" x="0" id="text-entity-TASKVIDEO-3d343ed2-8417-5031-a076-f1ce215f1cb8-attr-2-name" class="er entityLabel">user_id</text><rect height="22" width="21.5625" y="46" x="102.53125" class="er attributeBoxEven"/><text style="dominant-baseline: middle; font-size: 10.2px;" transform="translate(107.53125,57)" y="0" x="0" id="text-entity-TASKVIDEO-3d343ed2-8417-5031-a076-f1ce215f1cb8-attr-2-key" class="er entityLabel">FK</text><rect height="22.091797828674316" width="35.75" y="68" x="0" class="er attributeBoxOdd"/><text style="dominant-baseline: middle; font-size: 10.2px;" transform="translate(5,79.04589891433716)" y="0" x="0" id="text-entity-TASKVIDEO-3d343ed2-8417-5031-a076-f1ce215f1cb8-attr-3-type" class="er entityLabel">string</text><rect height="22.091797828674316" width="66.78125" y="68" x="35.75" class="er attributeBoxOdd"/><text style="dominant-baseline: middle; font-size: 10.2px;" transform="translate(40.75,79.04589891433716)" y="0" x="0" id="text-entity-TASKVIDEO-3d343ed2-8417-5031-a076-f1ce215f1cb8-attr-3-name" class="er entityLabel">url</text><rect height="22.091797828674316" width="21.5625" y="68" x="102.53125" class="er attributeBoxOdd"/><text style="dominant-baseline: middle; font-size: 10.2px;" transform="translate(107.53125,79.04589891433716)" y="0" x="0" id="text-entity-TASKVIDEO-3d343ed2-8417-5031-a076-f1ce215f1cb8-attr-3-key" class="er entityLabel"/><rect height="22.091797828674316" width="35.75" y="90.09179782867432" x="0" class="er attributeBoxEven"/><text style="dominant-baseline: middle; font-size: 10.2px;" transform="translate(5,101.13769674301147)" y="0" x="0" id="text-entity-TASKVIDEO-3d343ed2-8417-5031-a076-f1ce215f1cb8-attr-4-type" class="er entityLabel">string</text><rect height="22.091797828674316" width="66.78125" y="90.09179782867432" x="35.75" class="er attributeBoxEven"/><text style="dominant-baseline: middle; font-size: 10.2px;" transform="translate(40.75,101.13769674301147)" y="0" x="0" id="text-entity-TASKVIDEO-3d343ed2-8417-5031-a076-f1ce215f1cb8-attr-4-name" class="er entityLabel">title</text><rect height="22.091797828674316" width="21.5625" y="90.09179782867432" x="102.53125" class="er attributeBoxEven"/><text style="dominant-baseline: middle; font-size: 10.2px;" transform="translate(107.53125,101.13769674301147)" y="0" x="0" id="text-entity-TASKVIDEO-3d343ed2-8417-5031-a076-f1ce215f1cb8-attr-4-key" class="er entityLabel"/><rect height="22.091796875" width="35.75" y="112.18359565734863" x="0" class="er attributeBoxOdd"/><text style="dominant-baseline: middle; font-size: 10.2px;" transform="translate(5,123.22949409484863)" y="0" x="0" id="text-entity-TASKVIDEO-3d343ed2-8417-5031-a076-f1ce215f1cb8-attr-5-type" class="er entityLabel">date</text><rect height="22.091796875" width="66.78125" y="112.18359565734863" x="35.75" class="er attributeBoxOdd"/><text style="dominant-baseline: middle; font-size: 10.2px;" transform="translate(40.75,123.22949409484863)" y="0" x="0" id="text-entity-TASKVIDEO-3d343ed2-8417-5031-a076-f1ce215f1cb8-attr-5-name" class="er entityLabel">uploaded_at</text><rect height="22.091796875" width="21.5625" y="112.18359565734863" x="102.53125" class="er attributeBoxOdd"/><text style="dominant-baseline: middle; font-size: 10.2px;" transform="translate(107.53125,123.22949409484863)" y="0" x="0" id="text-entity-TASKVIDEO-3d343ed2-8417-5031-a076-f1ce215f1cb8-attr-5-key" class="er entityLabel"/><rect height="22.091797828674316" width="35.75" y="134.27539253234863" x="0" class="er attributeBoxEven"/><text style="dominant-baseline: middle; font-size: 10.2px;" transform="translate(5,145.3212914466858)" y="0" x="0" id="text-entity-TASKVIDEO-3d343ed2-8417-5031-a076-f1ce215f1cb8-attr-6-type" class="er entityLabel">string</text><rect height="22.091797828674316" width="66.78125" y="134.27539253234863" x="35.75" class="er attributeBoxEven"/><text style="dominant-baseline: middle; font-size: 10.2px;" transform="translate(40.75,145.3212914466858)" y="0" x="0" id="text-entity-TASKVIDEO-3d343ed2-8417-5031-a076-f1ce215f1cb8-attr-6-name" class="er entityLabel">content_url</text><rect height="22.091797828674316" width="21.5625" y="134.27539253234863" x="102.53125" class="er attributeBoxEven"/><text style="dominant-baseline: middle; font-size: 10.2px;" transform="translate(107.53125,145.3212914466858)" y="0" x="0" id="text-entity-TASKVIDEO-3d343ed2-8417-5031-a076-f1ce215f1cb8-attr-6-key" class="er entityLabel"/></g><g transform="translate(244.09375,342.3212890625 )" id="entity-TASKIMAGE-9ddeccea-0756-5698-aba5-77d2249883e4"><rect height="156.36719036102295" width="124.09375" y="0" x="0" class="er entityBox"/><text style="dominant-baseline: middle; text-anchor: middle; font-size: 12px;" transform="translate(62.046875,12)" y="0" x="0" id="text-entity-TASKIMAGE-9ddeccea-0756-5698-aba5-77d2249883e4" class="er entityLabel">TASK_IMAGE</text><rect height="22" width="35.75" y="24" x="0" class="er attributeBoxOdd"/><text style="dominant-baseline: middle; font-size: 10.2px;" transform="translate(5,35)" y="0" x="0" id="text-entity-TASKIMAGE-9ddeccea-0756-5698-aba5-77d2249883e4-attr-1-type" class="er entityLabel">int</text><rect height="22" width="66.78125" y="24" x="35.75" class="er attributeBoxOdd"/><text style="dominant-baseline: middle; font-size: 10.2px;" transform="translate(40.75,35)" y="0" x="0" id="text-entity-TASKIMAGE-9ddeccea-0756-5698-aba5-77d2249883e4-attr-1-name" class="er entityLabel">id</text><rect height="22" width="21.5625" y="24" x="102.53125" class="er attributeBoxOdd"/><text style="dominant-baseline: middle; font-size: 10.2px;" transform="translate(107.53125,35)" y="0" x="0" id="text-entity-TASKIMAGE-9ddeccea-0756-5698-aba5-77d2249883e4-attr-1-key" class="er entityLabel">PK</text><rect height="22" width="35.75" y="46" x="0" class="er attributeBoxEven"/><text style="dominant-baseline: middle; font-size: 10.2px;" transform="translate(5,57)" y="0" x="0" id="text-entity-TASKIMAGE-9ddeccea-0756-5698-aba5-77d2249883e4-attr-2-type" class="er entityLabel">int</text><rect height="22" width="66.78125" y="46" x="35.75" class="er attributeBoxEven"/><text style="dominant-baseline: middle; font-size: 10.2px;" transform="translate(40.75,57)" y="0" x="0" id="text-entity-TASKIMAGE-9ddeccea-0756-5698-aba5-77d2249883e4-attr-2-name" class="er entityLabel">user_id</text><rect height="22" width="21.5625" y="46" x="102.53125" class="er attributeBoxEven"/><text style="dominant-baseline: middle; font-size: 10.2px;" transform="translate(107.53125,57)" y="0" x="0" id="text-entity-TASKIMAGE-9ddeccea-0756-5698-aba5-77d2249883e4-attr-2-key" class="er entityLabel">FK</text><rect height="22.091797828674316" width="35.75" y="68" x="0" class="er attributeBoxOdd"/><text style="dominant-baseline: middle; font-size: 10.2px;" transform="translate(5,79.04589891433716)" y="0" x="0" id="text-entity-TASKIMAGE-9ddeccea-0756-5698-aba5-77d2249883e4-attr-3-type" class="er entityLabel">string</text><rect height="22.091797828674316" width="66.78125" y="68" x="35.75" class="er attributeBoxOdd"/><text style="dominant-baseline: middle; font-size: 10.2px;" transform="translate(40.75,79.04589891433716)" y="0" x="0" id="text-entity-TASKIMAGE-9ddeccea-0756-5698-aba5-77d2249883e4-attr-3-name" class="er entityLabel">url</text><rect height="22.091797828674316" width="21.5625" y="68" x="102.53125" class="er attributeBoxOdd"/><text style="dominant-baseline: middle; font-size: 10.2px;" transform="translate(107.53125,79.04589891433716)" y="0" x="0" id="text-entity-TASKIMAGE-9ddeccea-0756-5698-aba5-77d2249883e4-attr-3-key" class="er entityLabel"/><rect height="22.091797828674316" width="35.75" y="90.09179782867432" x="0" class="er attributeBoxEven"/><text style="dominant-baseline: middle; font-size: 10.2px;" transform="translate(5,101.13769674301147)" y="0" x="0" id="text-entity-TASKIMAGE-9ddeccea-0756-5698-aba5-77d2249883e4-attr-4-type" class="er entityLabel">string</text><rect height="22.091797828674316" width="66.78125" y="90.09179782867432" x="35.75" class="er attributeBoxEven"/><text style="dominant-baseline: middle; font-size: 10.2px;" transform="translate(40.75,101.13769674301147)" y="0" x="0" id="text-entity-TASKIMAGE-9ddeccea-0756-5698-aba5-77d2249883e4-attr-4-name" class="er entityLabel">title</text><rect height="22.091797828674316" width="21.5625" y="90.09179782867432" x="102.53125" class="er attributeBoxEven"/><text style="dominant-baseline: middle; font-size: 10.2px;" transform="translate(107.53125,101.13769674301147)" y="0" x="0" id="text-entity-TASKIMAGE-9ddeccea-0756-5698-aba5-77d2249883e4-attr-4-key" class="er entityLabel"/><rect height="22.091796875" width="35.75" y="112.18359565734863" x="0" class="er attributeBoxOdd"/><text style="dominant-baseline: middle; font-size: 10.2px;" transform="translate(5,123.22949409484863)" y="0" x="0" id="text-entity-TASKIMAGE-9ddeccea-0756-5698-aba5-77d2249883e4-attr-5-type" class="er entityLabel">date</text><rect height="22.091796875" width="66.78125" y="112.18359565734863" x="35.75" class="er attributeBoxOdd"/><text style="dominant-baseline: middle; font-size: 10.2px;" transform="translate(40.75,123.22949409484863)" y="0" x="0" id="text-entity-TASKIMAGE-9ddeccea-0756-5698-aba5-77d2249883e4-attr-5-name" class="er entityLabel">uploaded_at</text><rect height="22.091796875" width="21.5625" y="112.18359565734863" x="102.53125" class="er attributeBoxOdd"/><text style="dominant-baseline: middle; font-size: 10.2px;" transform="translate(107.53125,123.22949409484863)" y="0" x="0" id="text-entity-TASKIMAGE-9ddeccea-0756-5698-aba5-77d2249883e4-attr-5-key" class="er entityLabel"/><rect height="22.091797828674316" width="35.75" y="134.27539253234863" x="0" class="er attributeBoxEven"/><text style="dominant-baseline: middle; font-size: 10.2px;" transform="translate(5,145.3212914466858)" y="0" x="0" id="text-entity-TASKIMAGE-9ddeccea-0756-5698-aba5-77d2249883e4-attr-6-type" class="er entityLabel">string</text><rect height="22.091797828674316" width="66.78125" y="134.27539253234863" x="35.75" class="er attributeBoxEven"/><text style="dominant-baseline: middle; font-size: 10.2px;" transform="translate(40.75,145.3212914466858)" y="0" x="0" id="text-entity-TASKIMAGE-9ddeccea-0756-5698-aba5-77d2249883e4-attr-6-name" class="er entityLabel">content_url</text><rect height="22.091797828674316" width="21.5625" y="134.27539253234863" x="102.53125" class="er attributeBoxEven"/><text style="dominant-baseline: middle; font-size: 10.2px;" transform="translate(107.53125,145.3212914466858)" y="0" x="0" id="text-entity-TASKIMAGE-9ddeccea-0756-5698-aba5-77d2249883e4-attr-6-key" class="er entityLabel"/></g><g transform="translate(468.1875,386.458984375 )" id="entity-TASKSTATUS-59b1fa06-adcc-5d29-87a2-1b9c1fc244a6"><rect height="68.09179782867432" width="100" y="0" x="0" class="er entityBox"/><text style="dominant-baseline: middle; text-anchor: middle; font-size: 12px;" transform="translate(50,12)" y="0" x="0" id="text-entity-TASKSTATUS-59b1fa06-adcc-5d29-87a2-1b9c1fc244a6" class="er entityLabel">TASK_STATUS</text><rect height="22" width="38.322916666666664" y="24" x="0" class="er attributeBoxOdd"/><text style="dominant-baseline: middle; font-size: 10.2px;" transform="translate(5,35)" y="0" x="0" id="text-entity-TASKSTATUS-59b1fa06-adcc-5d29-87a2-1b9c1fc244a6-attr-1-type" class="er entityLabel">int</text><rect height="22" width="37.541666666666664" y="24" x="38.322916666666664" class="er attributeBoxOdd"/><text style="dominant-baseline: middle; font-size: 10.2px;" transform="translate(43.322916666666664,35)" y="0" x="0" id="text-entity-TASKSTATUS-59b1fa06-adcc-5d29-87a2-1b9c1fc244a6-attr-1-name" class="er entityLabel">id</text><rect height="22" width="24.135416666666668" y="24" x="75.86458333333333" class="er attributeBoxOdd"/><text style="dominant-baseline: middle; font-size: 10.2px;" transform="translate(80.86458333333333,35)" y="0" x="0" id="text-entity-TASKSTATUS-59b1fa06-adcc-5d29-87a2-1b9c1fc244a6-attr-1-key" class="er entityLabel">PK</text><rect height="22.091797828674316" width="38.322916666666664" y="46" x="0" class="er attributeBoxEven"/><text style="dominant-baseline: middle; font-size: 10.2px;" transform="translate(5,57.04589891433716)" y="0" x="0" id="text-entity-TASKSTATUS-59b1fa06-adcc-5d29-87a2-1b9c1fc244a6-attr-2-type" class="er entityLabel">string</text><rect height="22.091797828674316" width="37.541666666666664" y="46" x="38.322916666666664" class="er attributeBoxEven"/><text style="dominant-baseline: middle; font-size: 10.2px;" transform="translate(43.322916666666664,57.04589891433716)" y="0" x="0" id="text-entity-TASKSTATUS-59b1fa06-adcc-5d29-87a2-1b9c1fc244a6-attr-2-name" class="er entityLabel">name</text><rect height="22.091797828674316" width="24.135416666666668" y="46" x="75.86458333333333" class="er attributeBoxEven"/><text style="dominant-baseline: middle; font-size: 10.2px;" transform="translate(80.86458333333333,57.04589891433716)" y="0" x="0" id="text-entity-TASKSTATUS-59b1fa06-adcc-5d29-87a2-1b9c1fc244a6-attr-2-key" class="er entityLabel"/></g><g transform="translate(668.1875,320.3671875 )" id="entity-WITHDRAW-acc931cb-1d4f-5d3e-a16b-38be736bbf72"><rect height="200.27539348602295" width="143.078125" y="0" x="0" class="er entityBox"/><text style="dominant-baseline: middle; text-anchor: middle; font-size: 12px;" transform="translate(71.5390625,12)" y="0" x="0" id="text-entity-WITHDRAW-acc931cb-1d4f-5d3e-a16b-38be736bbf72" class="er entityLabel">WITHDRAW</text><rect height="22" width="35.75" y="24" x="0" class="er attributeBoxOdd"/><text style="dominant-baseline: middle; font-size: 10.2px;" transform="translate(5,35)" y="0" x="0" id="text-entity-WITHDRAW-acc931cb-1d4f-5d3e-a16b-38be736bbf72-attr-1-type" class="er entityLabel">int</text><rect height="22" width="85.765625" y="24" x="35.75" class="er attributeBoxOdd"/><text style="dominant-baseline: middle; font-size: 10.2px;" transform="translate(40.75,35)" y="0" x="0" id="text-entity-WITHDRAW-acc931cb-1d4f-5d3e-a16b-38be736bbf72-attr-1-name" class="er entityLabel">id</text><rect height="22" width="21.5625" y="24" x="121.515625" class="er attributeBoxOdd"/><text style="dominant-baseline: middle; font-size: 10.2px;" transform="translate(126.515625,35)" y="0" x="0" id="text-entity-WITHDRAW-acc931cb-1d4f-5d3e-a16b-38be736bbf72-attr-1-key" class="er entityLabel">PK</text><rect height="22" width="35.75" y="46" x="0" class="er attributeBoxEven"/><text style="dominant-baseline: middle; font-size: 10.2px;" transform="translate(5,57)" y="0" x="0" id="text-entity-WITHDRAW-acc931cb-1d4f-5d3e-a16b-38be736bbf72-attr-2-type" class="er entityLabel">int</text><rect height="22" width="85.765625" y="46" x="35.75" class="er attributeBoxEven"/><text style="dominant-baseline: middle; font-size: 10.2px;" transform="translate(40.75,57)" y="0" x="0" id="text-entity-WITHDRAW-acc931cb-1d4f-5d3e-a16b-38be736bbf72-attr-2-name" class="er entityLabel">user_id</text><rect height="22" width="21.5625" y="46" x="121.515625" class="er attributeBoxEven"/><text style="dominant-baseline: middle; font-size: 10.2px;" transform="translate(126.515625,57)" y="0" x="0" id="text-entity-WITHDRAW-acc931cb-1d4f-5d3e-a16b-38be736bbf72-attr-2-key" class="er entityLabel">FK</text><rect height="22" width="35.75" y="68" x="0" class="er attributeBoxOdd"/><text style="dominant-baseline: middle; font-size: 10.2px;" transform="translate(5,79)" y="0" x="0" id="text-entity-WITHDRAW-acc931cb-1d4f-5d3e-a16b-38be736bbf72-attr-3-type" class="er entityLabel">int</text><rect height="22" width="85.765625" y="68" x="35.75" class="er attributeBoxOdd"/><text style="dominant-baseline: middle; font-size: 10.2px;" transform="translate(40.75,79)" y="0" x="0" id="text-entity-WITHDRAW-acc931cb-1d4f-5d3e-a16b-38be736bbf72-attr-3-name" class="er entityLabel">task_id</text><rect height="22" width="21.5625" y="68" x="121.515625" class="er attributeBoxOdd"/><text style="dominant-baseline: middle; font-size: 10.2px;" transform="translate(126.515625,79)" y="0" x="0" id="text-entity-WITHDRAW-acc931cb-1d4f-5d3e-a16b-38be736bbf72-attr-3-key" class="er entityLabel">FK</text><rect height="22" width="35.75" y="90" x="0" class="er attributeBoxEven"/><text style="dominant-baseline: middle; font-size: 10.2px;" transform="translate(5,101)" y="0" x="0" id="text-entity-WITHDRAW-acc931cb-1d4f-5d3e-a16b-38be736bbf72-attr-4-type" class="er entityLabel">float</text><rect height="22" width="85.765625" y="90" x="35.75" class="er attributeBoxEven"/><text style="dominant-baseline: middle; font-size: 10.2px;" transform="translate(40.75,101)" y="0" x="0" id="text-entity-WITHDRAW-acc931cb-1d4f-5d3e-a16b-38be736bbf72-attr-4-name" class="er entityLabel">amount</text><rect height="22" width="21.5625" y="90" x="121.515625" class="er attributeBoxEven"/><text style="dominant-baseline: middle; font-size: 10.2px;" transform="translate(126.515625,101)" y="0" x="0" id="text-entity-WITHDRAW-acc931cb-1d4f-5d3e-a16b-38be736bbf72-attr-4-key" class="er entityLabel"/><rect height="22.091797828674316" width="35.75" y="112" x="0" class="er attributeBoxOdd"/><text style="dominant-baseline: middle; font-size: 10.2px;" transform="translate(5,123.04589891433716)" y="0" x="0" id="text-entity-WITHDRAW-acc931cb-1d4f-5d3e-a16b-38be736bbf72-attr-5-type" class="er entityLabel">string</text><rect height="22.091797828674316" width="85.765625" y="112" x="35.75" class="er attributeBoxOdd"/><text style="dominant-baseline: middle; font-size: 10.2px;" transform="translate(40.75,123.04589891433716)" y="0" x="0" id="text-entity-WITHDRAW-acc931cb-1d4f-5d3e-a16b-38be736bbf72-attr-5-name" class="er entityLabel">payment_details</text><rect height="22.091797828674316" width="21.5625" y="112" x="121.515625" class="er attributeBoxOdd"/><text style="dominant-baseline: middle; font-size: 10.2px;" transform="translate(126.515625,123.04589891433716)" y="0" x="0" id="text-entity-WITHDRAW-acc931cb-1d4f-5d3e-a16b-38be736bbf72-attr-5-key" class="er entityLabel"/><rect height="22.091797828674316" width="35.75" y="134.09179782867432" x="0" class="er attributeBoxEven"/><text style="dominant-baseline: middle; font-size: 10.2px;" transform="translate(5,145.13769674301147)" y="0" x="0" id="text-entity-WITHDRAW-acc931cb-1d4f-5d3e-a16b-38be736bbf72-attr-6-type" class="er entityLabel">string</text><rect height="22.091797828674316" width="85.765625" y="134.09179782867432" x="35.75" class="er attributeBoxEven"/><text style="dominant-baseline: middle; font-size: 10.2px;" transform="translate(40.75,145.13769674301147)" y="0" x="0" id="text-entity-WITHDRAW-acc931cb-1d4f-5d3e-a16b-38be736bbf72-attr-6-name" class="er entityLabel">stripe_token</text><rect height="22.091797828674316" width="21.5625" y="134.09179782867432" x="121.515625" class="er attributeBoxEven"/><text style="dominant-baseline: middle; font-size: 10.2px;" transform="translate(126.515625,145.13769674301147)" y="0" x="0" id="text-entity-WITHDRAW-acc931cb-1d4f-5d3e-a16b-38be736bbf72-attr-6-key" class="er entityLabel"/><rect height="22.091797828674316" width="35.75" y="156.18359565734863" x="0" class="er attributeBoxOdd"/><text style="dominant-baseline: middle; font-size: 10.2px;" transform="translate(5,167.2294945716858)" y="0" x="0" id="text-entity-WITHDRAW-acc931cb-1d4f-5d3e-a16b-38be736bbf72-attr-7-type" class="er entityLabel">string</text><rect height="22.091797828674316" width="85.765625" y="156.18359565734863" x="35.75" class="er attributeBoxOdd"/><text style="dominant-baseline: middle; font-size: 10.2px;" transform="translate(40.75,167.2294945716858)" y="0" x="0" id="text-entity-WITHDRAW-acc931cb-1d4f-5d3e-a16b-38be736bbf72-attr-7-name" class="er entityLabel">reciever</text><rect height="22.091797828674316" width="21.5625" y="156.18359565734863" x="121.515625" class="er attributeBoxOdd"/><text style="dominant-baseline: middle; font-size: 10.2px;" transform="translate(126.515625,167.2294945716858)" y="0" x="0" id="text-entity-WITHDRAW-acc931cb-1d4f-5d3e-a16b-38be736bbf72-attr-7-key" class="er entityLabel"/><rect height="22" width="35.75" y="178.27539348602295" x="0" class="er attributeBoxEven"/><text style="dominant-baseline: middle; font-size: 10.2px;" transform="translate(5,189.27539348602295)" y="0" x="0" id="text-entity-WITHDRAW-acc931cb-1d4f-5d3e-a16b-38be736bbf72-attr-8-type" class="er entityLabel">date</text><rect height="22" width="85.765625" y="178.27539348602295" x="35.75" class="er attributeBoxEven"/><text style="dominant-baseline: middle; font-size: 10.2px;" transform="translate(40.75,189.27539348602295)" y="0" x="0" id="text-entity-WITHDRAW-acc931cb-1d4f-5d3e-a16b-38be736bbf72-attr-8-name" class="er entityLabel">created_at</text><rect height="22" width="21.5625" y="178.27539348602295" x="121.515625" class="er attributeBoxEven"/><text style="dominant-baseline: middle; font-size: 10.2px;" transform="translate(126.515625,189.27539348602295)" y="0" x="0" id="text-entity-WITHDRAW-acc931cb-1d4f-5d3e-a16b-38be736bbf72-attr-8-key" class="er entityLabel"/></g><g transform="translate(920.3359375,353.458984375 )" id="entity-APPLICATION-78931c73-7328-5d57-b058-07575daa1430"><rect height="134.091796875" width="115.390625" y="0" x="0" class="er entityBox"/><text style="dominant-baseline: middle; text-anchor: middle; font-size: 12px;" transform="translate(57.6953125,12)" y="0" x="0" id="text-entity-APPLICATION-78931c73-7328-5d57-b058-07575daa1430" class="er entityLabel">APPLICATION</text><rect height="22" width="35.1875" y="24" x="0" class="er attributeBoxOdd"/><text style="dominant-baseline: middle; font-size: 10.2px;" transform="translate(5,35)" y="0" x="0" id="text-entity-APPLICATION-78931c73-7328-5d57-b058-07575daa1430-attr-1-type" class="er entityLabel">int</text><rect height="22" width="58.640625" y="24" x="35.1875" class="er attributeBoxOdd"/><text style="dominant-baseline: middle; font-size: 10.2px;" transform="translate(40.1875,35)" y="0" x="0" id="text-entity-APPLICATION-78931c73-7328-5d57-b058-07575daa1430-attr-1-name" class="er entityLabel">id</text><rect height="22" width="21.5625" y="24" x="93.828125" class="er attributeBoxOdd"/><text style="dominant-baseline: middle; font-size: 10.2px;" transform="translate(98.828125,35)" y="0" x="0" id="text-entity-APPLICATION-78931c73-7328-5d57-b058-07575daa1430-attr-1-key" class="er entityLabel">PK</text><rect height="22" width="35.1875" y="46" x="0" class="er attributeBoxEven"/><text style="dominant-baseline: middle; font-size: 10.2px;" transform="translate(5,57)" y="0" x="0" id="text-entity-APPLICATION-78931c73-7328-5d57-b058-07575daa1430-attr-2-type" class="er entityLabel">int</text><rect height="22" width="58.640625" y="46" x="35.1875" class="er attributeBoxEven"/><text style="dominant-baseline: middle; font-size: 10.2px;" transform="translate(40.1875,57)" y="0" x="0" id="text-entity-APPLICATION-78931c73-7328-5d57-b058-07575daa1430-attr-2-name" class="er entityLabel">task_id</text><rect height="22" width="21.5625" y="46" x="93.828125" class="er attributeBoxEven"/><text style="dominant-baseline: middle; font-size: 10.2px;" transform="translate(98.828125,57)" y="0" x="0" id="text-entity-APPLICATION-78931c73-7328-5d57-b058-07575daa1430-attr-2-key" class="er entityLabel">FK</text><rect height="22" width="35.1875" y="68" x="0" class="er attributeBoxOdd"/><text style="dominant-baseline: middle; font-size: 10.2px;" transform="translate(5,79)" y="0" x="0" id="text-entity-APPLICATION-78931c73-7328-5d57-b058-07575daa1430-attr-3-type" class="er entityLabel">int</text><rect height="22" width="58.640625" y="68" x="35.1875" class="er attributeBoxOdd"/><text style="dominant-baseline: middle; font-size: 10.2px;" transform="translate(40.1875,79)" y="0" x="0" id="text-entity-APPLICATION-78931c73-7328-5d57-b058-07575daa1430-attr-3-name" class="er entityLabel">user_id</text><rect height="22" width="21.5625" y="68" x="93.828125" class="er attributeBoxOdd"/><text style="dominant-baseline: middle; font-size: 10.2px;" transform="translate(98.828125,79)" y="0" x="0" id="text-entity-APPLICATION-78931c73-7328-5d57-b058-07575daa1430-attr-3-key" class="er entityLabel">FK</text><rect height="22" width="35.1875" y="90" x="0" class="er attributeBoxEven"/><text style="dominant-baseline: middle; font-size: 10.2px;" transform="translate(5,101)" y="0" x="0" id="text-entity-APPLICATION-78931c73-7328-5d57-b058-07575daa1430-attr-4-type" class="er entityLabel">enum</text><rect height="22" width="58.640625" y="90" x="35.1875" class="er attributeBoxEven"/><text style="dominant-baseline: middle; font-size: 10.2px;" transform="translate(40.1875,101)" y="0" x="0" id="text-entity-APPLICATION-78931c73-7328-5d57-b058-07575daa1430-attr-4-name" class="er entityLabel">status</text><rect height="22" width="21.5625" y="90" x="93.828125" class="er attributeBoxEven"/><text style="dominant-baseline: middle; font-size: 10.2px;" transform="translate(98.828125,101)" y="0" x="0" id="text-entity-APPLICATION-78931c73-7328-5d57-b058-07575daa1430-attr-4-key" class="er entityLabel"/><rect height="22.091796875" width="35.1875" y="112" x="0" class="er attributeBoxOdd"/><text style="dominant-baseline: middle; font-size: 10.2px;" transform="translate(5,123.0458984375)" y="0" x="0" id="text-entity-APPLICATION-78931c73-7328-5d57-b058-07575daa1430-attr-5-type" class="er entityLabel">date</text><rect height="22.091796875" width="58.640625" y="112" x="35.1875" class="er attributeBoxOdd"/><text style="dominant-baseline: middle; font-size: 10.2px;" transform="translate(40.1875,123.0458984375)" y="0" x="0" id="text-entity-APPLICATION-78931c73-7328-5d57-b058-07575daa1430-attr-5-name" class="er entityLabel">applied_at</text><rect height="22.091796875" width="21.5625" y="112" x="93.828125" class="er attributeBoxOdd"/><text style="dominant-baseline: middle; font-size: 10.2px;" transform="translate(98.828125,123.0458984375)" y="0" x="0" id="text-entity-APPLICATION-78931c73-7328-5d57-b058-07575daa1430-attr-5-key" class="er entityLabel"/></g><g transform="translate(906.3671875,620.642578125 )" id="entity-APPLICATIONSTATUS-5a9e8d21-f963-5218-92c5-20022e55754b"><rect height="68" width="143.328125" y="0" x="0" class="er entityBox"/><text style="dominant-baseline: middle; text-anchor: middle; font-size: 12px;" transform="translate(71.6640625,12)" y="0" x="0" id="text-entity-APPLICATIONSTATUS-5a9e8d21-f963-5218-92c5-20022e55754b" class="er entityLabel">APPLICATION_STATUS</text><rect height="22" width="52.390625" y="24" x="0" class="er attributeBoxOdd"/><text style="dominant-baseline: middle; font-size: 10.2px;" transform="translate(5,35)" y="0" x="0" id="text-entity-APPLICATIONSTATUS-5a9e8d21-f963-5218-92c5-20022e55754b-attr-1-type" class="er entityLabel">int</text><rect height="22" width="52.171875" y="24" x="52.390625" class="er attributeBoxOdd"/><text style="dominant-baseline: middle; font-size: 10.2px;" transform="translate(57.390625,35)" y="0" x="0" id="text-entity-APPLICATIONSTATUS-5a9e8d21-f963-5218-92c5-20022e55754b-attr-1-name" class="er entityLabel">id</text><rect height="22" width="38.765625" y="24" x="104.5625" class="er attributeBoxOdd"/><text style="dominant-baseline: middle; font-size: 10.2px;" transform="translate(109.5625,35)" y="0" x="0" id="text-entity-APPLICATIONSTATUS-5a9e8d21-f963-5218-92c5-20022e55754b-attr-1-key" class="er entityLabel">PK</text><rect height="22" width="52.390625" y="46" x="0" class="er attributeBoxEven"/><text style="dominant-baseline: middle; font-size: 10.2px;" transform="translate(5,57)" y="0" x="0" id="text-entity-APPLICATIONSTATUS-5a9e8d21-f963-5218-92c5-20022e55754b-attr-2-type" class="er entityLabel">enum</text><rect height="22" width="52.171875" y="46" x="52.390625" class="er attributeBoxEven"/><text style="dominant-baseline: middle; font-size: 10.2px;" transform="translate(57.390625,57)" y="0" x="0" id="text-entity-APPLICATIONSTATUS-5a9e8d21-f963-5218-92c5-20022e55754b-attr-2-name" class="er entityLabel">name</text><rect height="22" width="38.765625" y="46" x="104.5625" class="er attributeBoxEven"/><text style="dominant-baseline: middle; font-size: 10.2px;" transform="translate(109.5625,57)" y="0" x="0" id="text-entity-APPLICATIONSTATUS-5a9e8d21-f963-5218-92c5-20022e55754b-attr-2-key" class="er entityLabel"/></g><g transform="translate(673.0859375,620.642578125 )" id="entity-WITHDRAWSTATUS-8f48508a-971d-526e-a945-2ff80b2ccdc4"><rect height="68" width="133.28125" y="0" x="0" class="er entityBox"/><text style="dominant-baseline: middle; text-anchor: middle; font-size: 12px;" transform="translate(66.640625,12)" y="0" x="0" id="text-entity-WITHDRAWSTATUS-8f48508a-971d-526e-a945-2ff80b2ccdc4" class="er entityLabel">WITHDRAW_STATUS</text><rect height="22" width="49.041666666666664" y="24" x="0" class="er attributeBoxOdd"/><text style="dominant-baseline: middle; font-size: 10.2px;" transform="translate(5,35)" y="0" x="0" id="text-entity-WITHDRAWSTATUS-8f48508a-971d-526e-a945-2ff80b2ccdc4-attr-1-type" class="er entityLabel">int</text><rect height="22" width="48.822916666666664" y="24" x="49.041666666666664" class="er attributeBoxOdd"/><text style="dominant-baseline: middle; font-size: 10.2px;" transform="translate(54.041666666666664,35)" y="0" x="0" id="text-entity-WITHDRAWSTATUS-8f48508a-971d-526e-a945-2ff80b2ccdc4-attr-1-name" class="er entityLabel">id</text><rect height="22" width="35.416666666666664" y="24" x="97.86458333333333" class="er attributeBoxOdd"/><text style="dominant-baseline: middle; font-size: 10.2px;" transform="translate(102.86458333333333,35)" y="0" x="0" id="text-entity-WITHDRAWSTATUS-8f48508a-971d-526e-a945-2ff80b2ccdc4-attr-1-key" class="er entityLabel">PK</text><rect height="22" width="49.041666666666664" y="46" x="0" class="er attributeBoxEven"/><text style="dominant-baseline: middle; font-size: 10.2px;" transform="translate(5,57)" y="0" x="0" id="text-entity-WITHDRAWSTATUS-8f48508a-971d-526e-a945-2ff80b2ccdc4-attr-2-type" class="er entityLabel">enum</text><rect height="22" width="48.822916666666664" y="46" x="49.041666666666664" class="er attributeBoxEven"/><text style="dominant-baseline: middle; font-size: 10.2px;" transform="translate(54.041666666666664,57)" y="0" x="0" id="text-entity-WITHDRAWSTATUS-8f48508a-971d-526e-a945-2ff80b2ccdc4-attr-2-name" class="er entityLabel">name</text><rect height="22" width="35.416666666666664" y="46" x="97.86458333333333" class="er attributeBoxEven"/><text style="dominant-baseline: middle; font-size: 10.2px;" transform="translate(102.86458333333333,57)" y="0" x="0" id="text-entity-WITHDRAWSTATUS-8f48508a-971d-526e-a945-2ff80b2ccdc4-attr-2-key" class="er entityLabel"/></g><rect height="14" width="41.078125" y="208.44015502929688" x="227.7736358642578" class="er relationshipLabelBox"/><text style="text-anchor: middle; dominant-baseline: middle; font-size: 12px;" y="215.44015502929688" x="248.3126983642578" id="rel1" class="er relationshipLabel">uploads</text><rect height="14" width="41.078125" y="229.5100860595703" x="339.2713317871094" class="er relationshipLabelBox"/><text style="text-anchor: middle; dominant-baseline: middle; font-size: 12px;" y="236.5100860595703" x="359.8103942871094" id="rel2" class="er relationshipLabel">uploads</text><rect height="14" width="17.71875" y="296.41302490234375" x="509.32861328125" class="er relationshipLabelBox"/><text style="text-anchor: middle; dominant-baseline: middle; font-size: 12px;" y="303.41302490234375" x="518.18798828125" id="rel3" class="er relationshipLabel">has</text><rect height="14" width="83.40625" y="221.16452026367188" x="632.6771240234375" class="er relationshipLabelBox"/><text style="text-anchor: middle; dominant-baseline: middle; font-size: 12px;" y="228.16452026367188" x="674.3802490234375" id="rel4" class="er relationshipLabel">associated with</text><rect height="14" width="17.71875" y="209.16192626953125" x="794.6544799804688" class="er relationshipLabelBox"/><text style="text-anchor: middle; dominant-baseline: middle; font-size: 12px;" y="216.16192626953125" x="803.5138549804688" id="rel5" class="er relationshipLabel">has</text><rect height="14" width="17.71875" y="547.0969848632812" x="969.171630859375" class="er relationshipLabelBox"/><text style="text-anchor: middle; dominant-baseline: middle; font-size: 12px;" y="554.0969848632812" x="978.031005859375" id="rel6" class="er relationshipLabel">has</text><rect height="14" width="17.71875" y="563.6430053710938" x="730.8676147460938" class="er relationshipLabelBox"/><text style="text-anchor: middle; dominant-baseline: middle; font-size: 12px;" y="570.6430053710938" x="739.7269897460938" id="rel7" class="er relationshipLabel">has</text></svg>